<?xml version="1.0" encoding="UTF-8" standalone="no"?>
<!-- Created with Inkscape (http://www.inkscape.org/) -->

<svg
   xmlns:dc="http://purl.org/dc/elements/1.1/"
   xmlns:cc="http://creativecommons.org/ns#"
   xmlns:rdf="http://www.w3.org/1999/02/22-rdf-syntax-ns#"
   xmlns:svg="http://www.w3.org/2000/svg"
   xmlns="http://www.w3.org/2000/svg"
   xmlns:xlink="http://www.w3.org/1999/xlink"
   xmlns:sodipodi="http://sodipodi.sourceforge.net/DTD/sodipodi-0.dtd"
   xmlns:inkscape="http://www.inkscape.org/namespaces/inkscape"
   width="45.943726mm"
   height="51.927292mm"
   viewBox="0 0 45.943726 51.927292"
   version="1.1"
   id="svg8"
   inkscape:version="0.92.3 (2405546, 2018-03-11)"
   sodipodi:docname="SV_Logo_vector.svg">
  <defs
     id="defs2">
    <linearGradient
       inkscape:collect="always"
       id="linearGradient934">
      <stop
         style="stop-color:#000000;stop-opacity:1;"
         offset="0"
         id="stop930" />
      <stop
         style="stop-color:#000000;stop-opacity:0;"
         offset="1"
         id="stop932" />
    </linearGradient>
    <radialGradient
       inkscape:collect="always"
       xlink:href="#linearGradient934"
       id="radialGradient938"
       cx="53.454414"
       cy="74.29351"
       fx="53.454414"
       fy="74.29351"
       r="21.907738"
       gradientTransform="matrix(1,0,0,1.1283238,0,-9.5336258)"
       gradientUnits="userSpaceOnUse" />
    <radialGradient
       inkscape:collect="always"
       xlink:href="#linearGradient934"
       id="radialGradient2475"
       gradientUnits="userSpaceOnUse"
       gradientTransform="matrix(1,0,0,1.1283238,0,-9.5336258)"
       cx="53.454414"
       cy="74.29351"
       fx="53.454414"
       fy="74.29351"
       r="21.907738" />
  </defs>
  <sodipodi:namedview
     id="base"
     pagecolor="#ffffff"
     bordercolor="#666666"
     borderopacity="1.0"
     inkscape:pageopacity="0.0"
     inkscape:pageshadow="2"
     inkscape:zoom="0.98994949"
     inkscape:cx="-229.07081"
     inkscape:cy="183.86687"
     inkscape:document-units="mm"
     inkscape:current-layer="layer1"
     showgrid="false"
     fit-margin-top="0"
     fit-margin-left="0"
     fit-margin-right="0"
     fit-margin-bottom="0"
     inkscape:window-width="1366"
     inkscape:window-height="715"
     inkscape:window-x="-8"
     inkscape:window-y="-8"
     inkscape:window-maximized="1" />
  <metadata
     id="metadata5">
    <rdf:RDF>
      <cc:Work
         rdf:about="">
        <dc:format>image/svg+xml</dc:format>
        <dc:type
           rdf:resource="http://purl.org/dc/dcmitype/StillImage" />
        <dc:title></dc:title>
      </cc:Work>
    </rdf:RDF>
  </metadata>
  <g
     inkscape:label="Capa 1"
     inkscape:groupmode="layer"
     id="layer1"
     transform="translate(-30.744868,-49.039953)"
     style="display:inline;opacity:1"
     sodipodi:insensitive="true">
    <g
       id="g905">
      <g
         id="g2473"
         transform="matrix(1.048573,0,0,1.048573,-2.3341253,-2.9425204)">
        <path
           style="fill:#415d68;fill-opacity:1;stroke:#415d68;stroke-width:0.26458332px;stroke-linecap:butt;stroke-linejoin:miter;stroke-opacity:1"
           d="M 31.75,49.709077 V 82.404018 L 53.453905,98.68601 Z"
           id="path815"
           inkscape:connector-curvature="0" />
        <path
           style="fill:#415d68;fill-opacity:1;stroke:#415d68;stroke-width:0.26458332px;stroke-linecap:butt;stroke-linejoin:miter;stroke-opacity:1"
           d="M 75.157813,49.709076 V 82.404019 L 53.453905,98.68601 Z"
           id="path815-5"
           inkscape:connector-curvature="0" />
        <path
           style="fill:#6494a4;fill-opacity:1;stroke:url(#radialGradient2475);stroke-width:0.26458332px;stroke-linecap:butt;stroke-linejoin:miter;stroke-opacity:1"
           d="m 31.75,49.709077 10.211316,-10e-7 h 11.49259 l 12.580485,0.101969 9.123422,-0.10197 -21.703908,48.976933 z"
           id="path859"
           inkscape:connector-curvature="0"
           sodipodi:nodetypes="ccccccc" />
      </g>
    </g>
    <path
       style="display:inline;opacity:1;fill:#415d68;fill-opacity:1;stroke:none;stroke-width:0.26458332;stroke-linecap:butt;stroke-linejoin:miter;stroke-miterlimit:4;stroke-dasharray:none;stroke-opacity:1"
       d="M 59.627805,65.682734 C 57.47914,63.732403 56.5194,63.260329 55.151042,63.093561 c -0.917832,-0.149319 -2.342609,-0.04194 -2.994979,1.210213 -0.977316,1.875847 2.183349,2.999401 2.921211,3.372964 1.703649,0.862519 4.275152,2.177663 5.602905,3.167639 1.539541,1.147886 2.63728,2.072123 3.346524,4.151224 0.742379,2.176234 1.00569,3.850363 -0.06398,6.335524 -2.271585,5.27755 -9.136441,6.50828 -14.190482,4.81443 -2.400174,-1.0655 -3.813171,-2.19352 -5.479025,-4.10927 l 4.355658,-4.696006 c 0.663208,0.793666 6.106311,5.348616 8.806016,1.968157 2.539248,-3.17954 -5.222147,-5.029611 -8.88244,-8.010048 -2.264462,-2.031297 -3.182219,-4.161434 -3.176812,-6.57098 0.0045,-1.999975 0.857917,-4.085746 2.741838,-5.677666 1.17237,-0.990658 2.303914,-2.023005 6.178126,-2.330764 1.039947,-0.08261 3.130113,0.06177 5.536031,1.217592 2.699739,1.29697 3.453834,2.652406 4.11095,3.494907 -0.49955,0.554629 -3.423682,3.440741 -4.334778,4.251257 z"
       id="path837-7-5"
       inkscape:connector-curvature="0"
       sodipodi:nodetypes="ccssssscccscssssccc" />
    <path
       style="display:inline;opacity:1;fill:#ecf0f2;fill-opacity:1;stroke:none;stroke-width:0.26458332;stroke-linecap:butt;stroke-linejoin:miter;stroke-miterlimit:4;stroke-dasharray:none;stroke-opacity:1"
       d="m 58.93579,64.784895 c -2.148665,-1.950331 -3.108405,-2.422405 -4.476763,-2.589173 -0.917832,-0.149319 -2.342609,-0.04194 -2.994979,1.210213 -0.977316,1.875847 2.183349,2.999401 2.921211,3.372964 1.703649,0.862519 4.275152,2.177663 5.602905,3.167639 1.539541,1.147886 2.63728,2.072123 3.346524,4.151224 0.742379,2.176234 1.00569,3.850363 -0.06398,6.335523 -2.271585,5.27755 -9.136441,6.50828 -14.190482,4.81443 -2.400174,-1.0655 -3.813171,-2.19352 -5.479025,-4.10927 l 4.355658,-4.696005 c 0.663208,0.793666 6.106311,5.348615 8.806016,1.968157 2.539248,-3.17954 -5.222147,-5.029611 -8.88244,-8.010048 -2.264462,-2.031297 -3.182219,-4.161434 -3.176812,-6.57098 0.0045,-1.999975 0.857917,-4.085746 2.741838,-5.677666 1.17237,-0.990658 2.303914,-2.023005 6.178126,-2.330764 1.039947,-0.08261 3.130113,0.06177 5.536031,1.217592 2.699739,1.29697 3.453834,2.652406 4.11095,3.494907 -0.49955,0.554629 -3.423682,3.440741 -4.334778,4.251257 z"
       id="path837-74"
       inkscape:connector-curvature="0"
       sodipodi:nodetypes="ccssssscccscssssccc" />
  </g>
</svg>
