<svg id="svg" version="1.1" width="400" height="455.11811023622045" viewBox="0 0 400 455.11811023622045" xmlns="http://www.w3.org/2000/svg" xmlns:xlink="http://www.w3.org/1999/xlink" ><g id="svgg"><path id="path0" d="M399.766 51.600 C 399.766 55.670,399.825 57.335,399.898 55.300 C 399.971 53.265,399.971 49.935,399.898 47.900 C 399.825 45.865,399.766 47.530,399.766 51.600 M0.131 82.600 C 0.133 84.140,0.205 84.721,0.292 83.891 C 0.379 83.061,0.377 81.801,0.289 81.091 C 0.200 80.381,0.129 81.060,0.131 82.600 M0.140 94.800 C 0.140 96.670,0.209 97.435,0.293 96.500 C 0.377 95.565,0.377 94.035,0.293 93.100 C 0.209 92.165,0.140 92.930,0.140 94.800 M399.102 106.800 C 398.939 108.670,398.829 112.990,398.858 116.400 L 398.911 122.600 399.261 118.400 C 399.453 116.090,399.563 111.770,399.505 108.800 L 399.400 103.400 399.102 106.800 M398.493 168.800 C 398.493 169.570,398.575 169.885,398.676 169.500 C 398.776 169.115,398.776 168.485,398.676 168.100 C 398.575 167.715,398.493 168.030,398.493 168.800 M398.312 174.400 C 398.154 176.050,398.041 180.460,398.061 184.200 C 398.095 190.715,398.112 190.849,398.453 187.400 C 398.649 185.420,398.762 181.010,398.705 177.600 C 398.613 172.165,398.565 171.770,398.312 174.400 M0.450 190.433 C 0.477 196.245,0.638 202.260,0.808 203.800 C 0.977 205.340,1.023 200.660,0.909 193.400 C 0.795 186.140,0.634 180.125,0.551 180.033 C 0.468 179.942,0.422 184.622,0.450 190.433 M397.709 236.800 C 397.709 237.790,397.787 238.195,397.882 237.700 C 397.978 237.205,397.978 236.395,397.882 235.900 C 397.787 235.405,397.709 235.810,397.709 236.800 M397.511 242.400 C 397.352 244.270,397.238 248.860,397.258 252.600 C 397.292 259.122,397.308 259.253,397.651 255.800 C 397.848 253.820,397.962 249.230,397.904 245.600 C 397.809 239.596,397.774 239.307,397.511 242.400 M1.359 303.200 C 1.359 306.390,1.421 307.695,1.497 306.100 C 1.573 304.505,1.573 301.895,1.497 300.300 C 1.421 298.705,1.359 300.010,1.359 303.200 M396.700 310.962 C 396.250 317.508,396.375 327.300,396.856 323.200 C 397.050 321.550,397.161 317.140,397.104 313.400 L 397.000 306.600 396.700 310.962 M1.256 317.000 C 1.256 320.740,1.409 324.160,1.596 324.600 C 1.800 325.081,1.934 322.685,1.932 318.600 C 1.931 314.860,1.778 311.440,1.593 311.000 C 1.393 310.524,1.256 312.952,1.256 317.000 M232.500 436.944 C 232.005 437.189,231.600 437.527,231.600 437.695 C 231.600 438.196,232.140 438.029,233.200 437.200 C 234.282 436.354,233.943 436.229,232.500 436.944 M228.537 439.223 C 228.023 439.737,224.072 441.948,223.100 442.265 C 222.386 442.498,222.119 443.200,222.744 443.200 C 222.933 443.200,223.698 442.793,224.444 442.295 C 225.190 441.798,226.655 440.943,227.700 440.396 C 228.745 439.849,229.600 439.266,229.600 439.101 C 229.600 438.666,229.028 438.732,228.537 439.223 M220.800 443.600 C 220.800 443.820,220.517 444.000,220.171 444.000 C 219.403 444.000,218.201 445.135,218.574 445.507 C 218.722 445.656,218.969 445.602,219.122 445.388 C 219.275 445.174,219.895 444.744,220.500 444.432 C 221.590 443.870,221.971 443.200,221.200 443.200 C 220.980 443.200,220.800 443.380,220.800 443.600 M215.200 446.702 C 215.200 446.869,214.660 447.244,214.000 447.536 C 212.846 448.047,212.369 448.800,213.200 448.800 C 213.420 448.800,213.600 448.620,213.600 448.400 C 213.600 448.180,213.878 448.000,214.217 448.000 C 214.556 448.000,215.220 447.640,215.692 447.200 C 216.420 446.522,216.448 446.400,215.875 446.400 C 215.504 446.400,215.200 446.536,215.200 446.702 M211.200 449.200 C 211.200 449.420,210.917 449.600,210.571 449.600 C 209.780 449.600,208.603 450.743,209.007 451.119 C 209.173 451.274,209.390 451.175,209.488 450.900 C 209.586 450.625,210.012 450.400,210.433 450.400 C 210.855 450.400,211.200 450.220,211.200 450.000 C 211.200 449.780,211.470 449.600,211.800 449.600 C 212.130 449.600,212.400 449.420,212.400 449.200 C 212.400 448.980,212.130 448.800,211.800 448.800 C 211.470 448.800,211.200 448.980,211.200 449.200 M207.200 451.600 C 207.200 451.820,206.840 452.000,206.400 452.000 C 205.960 452.000,205.600 452.180,205.600 452.400 C 205.600 452.620,205.330 452.800,205.000 452.800 C 204.670 452.800,204.400 452.980,204.400 453.200 C 204.400 453.420,204.130 453.600,203.800 453.600 C 203.470 453.600,203.200 453.780,203.200 454.000 C 203.200 454.463,204.268 454.547,204.467 454.100 C 204.634 453.724,206.764 452.425,207.700 452.129 C 208.556 451.857,208.627 451.200,207.800 451.200 C 207.470 451.200,207.200 451.380,207.200 451.600 " stroke="none" fill="#000000" fill-rule="evenodd"></path><path id="path1" d="M0.203 87.000 C 0.317 132.760,0.593 178.210,0.815 188.000 C 1.037 197.790,1.314 229.470,1.430 258.400 C 1.546 287.330,1.714 312.620,1.803 314.600 C 1.893 316.580,1.974 323.153,1.983 329.206 L 2.000 340.211 3.500 340.894 C 5.048 341.597,7.248 342.840,7.600 343.210 C 7.710 343.325,8.655 343.865,9.700 344.409 C 10.745 344.953,11.600 345.534,11.600 345.699 C 11.600 345.865,11.960 346.000,12.400 346.000 C 12.840 346.000,13.200 346.166,13.200 346.368 C 13.200 346.571,13.740 346.855,14.400 347.000 C 15.060 347.145,15.600 347.429,15.600 347.632 C 15.600 347.834,15.870 348.000,16.200 348.000 C 16.530 348.000,16.800 348.180,16.800 348.400 C 16.800 348.620,17.160 348.800,17.600 348.800 C 18.040 348.800,18.400 348.980,18.400 349.200 C 18.400 349.420,18.670 349.600,19.000 349.600 C 19.330 349.600,19.600 349.746,19.600 349.925 C 19.600 350.104,20.230 350.498,21.000 350.800 C 21.770 351.102,22.400 351.496,22.400 351.675 C 22.400 351.854,22.670 352.000,23.000 352.000 C 23.330 352.000,23.600 352.146,23.600 352.325 C 23.600 352.504,24.230 352.898,25.000 353.200 C 25.770 353.502,26.400 353.896,26.400 354.075 C 26.400 354.254,26.760 354.400,27.200 354.400 C 27.640 354.400,28.000 354.580,28.000 354.800 C 28.000 355.020,28.270 355.200,28.600 355.200 C 28.930 355.200,29.200 355.380,29.200 355.600 C 29.200 355.820,29.470 356.000,29.800 356.000 C 30.130 356.000,30.400 356.180,30.400 356.400 C 30.400 356.620,30.760 356.800,31.200 356.800 C 31.640 356.800,32.000 356.980,32.000 357.200 C 32.000 357.420,32.278 357.600,32.617 357.600 C 32.956 357.600,33.620 357.960,34.092 358.400 C 34.564 358.840,35.187 359.200,35.475 359.200 C 35.764 359.200,36.000 359.380,36.000 359.600 C 36.000 359.820,36.360 360.000,36.800 360.000 C 37.240 360.000,37.600 360.159,37.600 360.353 C 37.600 360.548,37.915 360.807,38.300 360.929 C 38.985 361.146,41.204 362.404,41.600 362.800 C 41.710 362.910,42.230 363.242,42.755 363.538 C 43.280 363.833,44.290 364.401,45.000 364.800 C 45.710 365.199,46.720 365.767,47.245 366.062 C 47.770 366.358,48.290 366.690,48.400 366.800 C 48.510 366.910,49.346 367.406,50.257 367.901 C 51.168 368.397,52.338 369.034,52.857 369.318 C 53.376 369.602,54.430 370.230,55.200 370.715 C 55.970 371.200,56.833 371.598,57.117 371.599 C 57.401 371.599,58.020 371.960,58.492 372.400 C 58.964 372.840,59.587 373.200,59.875 373.200 C 60.164 373.200,60.400 373.380,60.400 373.600 C 60.400 373.820,60.760 374.000,61.200 374.000 C 61.640 374.000,62.000 374.180,62.000 374.400 C 62.000 374.620,62.278 374.800,62.617 374.800 C 62.956 374.800,63.620 375.160,64.092 375.600 C 64.564 376.040,65.187 376.400,65.475 376.400 C 65.764 376.400,66.000 376.546,66.000 376.725 C 66.000 376.904,66.630 377.298,67.400 377.600 C 68.170 377.902,68.800 378.296,68.800 378.475 C 68.800 378.654,69.070 378.800,69.400 378.800 C 69.730 378.800,70.000 378.936,70.000 379.102 C 70.000 379.269,70.585 379.659,71.300 379.970 C 72.015 380.281,72.690 380.640,72.800 380.768 C 73.133 381.154,75.353 382.434,76.100 382.671 C 76.485 382.793,76.800 383.052,76.800 383.247 C 76.800 383.441,77.078 383.600,77.417 383.600 C 77.756 383.600,78.420 383.960,78.892 384.400 C 79.364 384.840,79.987 385.200,80.275 385.200 C 80.564 385.200,80.800 385.380,80.800 385.600 C 80.800 385.820,81.160 386.000,81.600 386.000 C 82.040 386.000,82.401 386.135,82.403 386.300 C 82.405 386.465,82.810 386.798,83.303 387.040 C 85.711 388.222,87.813 389.430,87.933 389.700 C 88.007 389.865,88.206 390.000,88.376 390.000 C 88.547 390.000,90.634 391.170,93.015 392.600 C 95.396 394.030,97.582 395.200,97.872 395.200 C 98.162 395.200,98.400 395.346,98.400 395.525 C 98.400 395.704,99.030 396.098,99.800 396.400 C 100.570 396.702,101.200 397.096,101.200 397.275 C 101.200 397.454,101.478 397.600,101.817 397.600 C 102.156 397.600,102.820 397.960,103.292 398.400 C 103.764 398.840,104.387 399.200,104.675 399.200 C 104.964 399.200,105.200 399.380,105.200 399.600 C 105.200 399.820,105.560 400.000,106.000 400.000 C 106.440 400.000,106.800 400.180,106.800 400.400 C 106.800 400.620,107.078 400.800,107.417 400.800 C 107.756 400.800,108.420 401.160,108.892 401.600 C 109.364 402.040,109.987 402.400,110.275 402.400 C 110.564 402.400,110.800 402.580,110.800 402.800 C 110.800 403.020,111.160 403.200,111.600 403.200 C 112.040 403.200,112.400 403.380,112.400 403.600 C 112.400 403.820,112.636 404.000,112.925 404.000 C 113.213 404.000,113.836 404.360,114.308 404.800 C 114.780 405.240,115.444 405.600,115.783 405.600 C 116.122 405.600,116.400 405.759,116.400 405.953 C 116.400 406.148,116.715 406.407,117.100 406.529 C 117.787 406.746,120.006 408.005,120.400 408.401 C 120.510 408.511,121.140 408.871,121.800 409.200 C 122.460 409.529,123.090 409.889,123.200 409.999 C 123.594 410.395,125.813 411.654,126.500 411.871 C 126.885 411.993,127.200 412.252,127.200 412.447 C 127.200 412.641,127.560 412.800,128.000 412.800 C 128.440 412.800,128.800 412.935,128.800 413.101 C 128.800 413.266,129.655 413.847,130.700 414.391 C 131.745 414.935,132.690 415.475,132.800 415.590 C 133.156 415.964,136.968 418.027,138.100 418.459 C 138.705 418.689,139.200 419.041,139.200 419.239 C 139.200 419.438,139.560 419.600,140.000 419.600 C 140.440 419.600,140.800 419.780,140.800 420.000 C 140.800 420.220,141.070 420.400,141.400 420.400 C 141.730 420.400,142.000 420.580,142.000 420.800 C 142.000 421.020,142.360 421.200,142.800 421.200 C 143.240 421.200,143.600 421.380,143.600 421.600 C 143.600 421.820,143.870 422.000,144.200 422.000 C 144.530 422.000,144.800 422.136,144.800 422.302 C 144.800 422.469,145.385 422.859,146.100 423.170 C 146.815 423.481,147.490 423.840,147.600 423.968 C 147.933 424.354,150.153 425.634,150.900 425.871 C 151.285 425.993,151.600 426.252,151.600 426.447 C 151.600 426.641,151.878 426.800,152.217 426.800 C 152.556 426.800,153.220 427.160,153.692 427.600 C 154.164 428.040,154.787 428.400,155.075 428.400 C 155.364 428.400,155.600 428.580,155.600 428.800 C 155.600 429.020,155.960 429.200,156.400 429.200 C 156.840 429.200,157.200 429.380,157.200 429.600 C 157.200 429.820,157.478 430.000,157.817 430.000 C 158.156 430.000,158.820 430.360,159.292 430.800 C 159.764 431.240,160.387 431.600,160.675 431.600 C 160.964 431.600,161.200 431.780,161.200 432.000 C 161.200 432.220,161.560 432.400,162.000 432.400 C 162.440 432.400,162.800 432.580,162.800 432.800 C 162.800 433.020,162.997 433.200,163.238 433.200 C 163.479 433.200,164.154 433.539,164.738 433.953 C 165.322 434.367,166.475 435.087,167.300 435.553 C 168.125 436.019,169.405 436.743,170.145 437.162 C 170.885 437.582,171.920 438.167,172.445 438.462 C 172.970 438.758,173.490 439.094,173.600 439.210 C 173.710 439.325,174.655 439.865,175.700 440.409 C 176.745 440.953,177.600 441.534,177.600 441.699 C 177.600 441.865,177.938 442.000,178.351 442.000 C 178.764 442.000,179.326 442.270,179.600 442.600 C 179.874 442.930,180.421 443.200,180.816 443.200 C 181.210 443.200,181.593 443.335,181.667 443.500 C 181.834 443.876,183.964 445.175,184.900 445.471 C 185.285 445.593,185.600 445.852,185.600 446.047 C 185.600 446.241,185.920 446.400,186.312 446.400 C 186.703 446.400,187.283 446.760,187.600 447.200 C 187.917 447.640,188.371 448.000,188.609 448.000 C 189.275 448.000,191.193 448.963,191.197 449.300 C 191.199 449.465,191.470 449.600,191.800 449.600 C 192.130 449.600,192.400 449.780,192.400 450.000 C 192.400 450.220,192.670 450.400,193.000 450.400 C 193.330 450.400,193.600 450.580,193.600 450.800 C 193.600 451.020,193.960 451.200,194.400 451.200 C 194.840 451.200,195.200 451.359,195.200 451.553 C 195.200 451.748,195.515 452.007,195.900 452.129 C 196.839 452.427,198.931 453.704,199.282 454.194 C 199.666 454.731,202.931 454.608,203.117 454.049 C 203.199 453.802,203.522 453.600,203.833 453.600 C 204.145 453.600,204.400 453.420,204.400 453.200 C 204.400 452.980,204.670 452.800,205.000 452.800 C 205.330 452.800,205.600 452.620,205.600 452.400 C 205.600 452.180,205.960 452.000,206.400 452.000 C 206.840 452.000,207.200 451.820,207.200 451.600 C 207.200 451.380,207.520 451.200,207.912 451.200 C 208.303 451.200,208.883 450.840,209.200 450.400 C 209.517 449.960,210.097 449.600,210.488 449.600 C 210.880 449.600,211.200 449.420,211.200 449.200 C 211.200 448.980,211.478 448.800,211.817 448.800 C 212.156 448.800,212.820 448.440,213.292 448.000 C 213.764 447.560,214.387 447.200,214.675 447.200 C 214.964 447.200,215.200 447.020,215.200 446.800 C 215.200 446.580,215.560 446.400,216.000 446.400 C 216.440 446.400,216.800 446.220,216.800 446.000 C 216.800 445.780,217.120 445.600,217.512 445.600 C 217.903 445.600,218.483 445.240,218.800 444.800 C 219.117 444.360,219.697 444.000,220.088 444.000 C 220.480 444.000,220.800 443.820,220.800 443.600 C 220.800 443.380,221.160 443.200,221.600 443.200 C 222.040 443.200,222.400 443.041,222.400 442.847 C 222.400 442.652,222.715 442.393,223.100 442.269 C 223.485 442.146,224.880 441.415,226.200 440.645 C 227.520 439.874,229.230 438.928,230.000 438.543 C 230.770 438.157,231.490 437.740,231.600 437.615 C 231.710 437.491,232.655 436.958,233.700 436.432 C 234.745 435.905,235.600 435.323,235.600 435.137 C 235.600 434.952,235.945 434.800,236.367 434.800 C 236.788 434.800,237.193 434.665,237.267 434.500 C 237.340 434.335,238.210 433.763,239.200 433.230 C 240.190 432.696,241.090 432.154,241.200 432.024 C 241.310 431.895,242.255 431.358,243.300 430.832 C 244.345 430.305,245.200 429.723,245.200 429.537 C 245.200 429.352,245.560 429.200,246.000 429.200 C 246.440 429.200,246.800 429.041,246.800 428.847 C 246.800 428.652,247.115 428.393,247.500 428.271 C 248.196 428.051,250.418 426.787,250.800 426.395 C 250.910 426.282,251.855 425.758,252.900 425.232 C 253.945 424.705,254.800 424.123,254.800 423.937 C 254.800 423.752,255.160 423.600,255.600 423.600 C 256.040 423.600,256.400 423.420,256.400 423.200 C 256.400 422.980,256.670 422.800,257.000 422.800 C 257.330 422.800,257.600 422.620,257.600 422.400 C 257.600 422.180,257.960 422.000,258.400 422.000 C 258.840 422.000,259.200 421.820,259.200 421.600 C 259.200 421.380,259.470 421.200,259.800 421.200 C 260.130 421.200,260.400 421.020,260.400 420.800 C 260.400 420.580,260.670 420.400,261.000 420.400 C 261.330 420.400,261.600 420.220,261.600 420.000 C 261.600 419.780,261.960 419.600,262.400 419.600 C 262.840 419.600,263.200 419.420,263.200 419.200 C 263.200 418.980,263.549 418.800,263.976 418.800 C 264.403 418.800,264.857 418.631,264.984 418.425 C 265.112 418.219,265.707 417.802,266.308 417.499 C 267.766 416.762,269.353 415.847,269.600 415.600 C 269.800 415.400,272.610 413.869,274.297 413.040 C 274.790 412.798,275.195 412.465,275.197 412.300 C 275.199 412.135,275.393 412.000,275.628 412.000 C 275.863 412.000,276.808 411.497,277.728 410.881 C 278.648 410.266,280.255 409.321,281.300 408.782 C 282.345 408.243,283.200 407.666,283.200 407.501 C 283.200 407.335,283.470 407.200,283.800 407.200 C 284.130 407.200,284.400 407.020,284.400 406.800 C 284.400 406.580,284.760 406.400,285.200 406.400 C 285.640 406.400,286.000 406.220,286.000 406.000 C 286.000 405.780,286.236 405.600,286.525 405.600 C 286.813 405.600,287.436 405.240,287.908 404.800 C 288.380 404.360,289.044 404.000,289.383 404.000 C 289.722 404.000,290.000 403.820,290.000 403.600 C 290.000 403.380,290.320 403.200,290.712 403.200 C 291.103 403.200,291.683 402.840,292.000 402.400 C 292.317 401.960,292.897 401.600,293.288 401.600 C 293.680 401.600,294.000 401.420,294.000 401.200 C 294.000 400.980,294.360 400.800,294.800 400.800 C 295.240 400.800,295.600 400.642,295.600 400.449 C 295.600 400.255,296.140 399.873,296.800 399.600 C 297.460 399.327,298.000 398.945,298.000 398.751 C 298.000 398.558,298.360 398.400,298.800 398.400 C 299.240 398.400,299.600 398.220,299.600 398.000 C 299.600 397.780,299.870 397.600,300.200 397.600 C 300.530 397.600,300.800 397.420,300.800 397.200 C 300.800 396.980,301.070 396.800,301.400 396.800 C 301.730 396.800,302.000 396.620,302.000 396.400 C 302.000 396.180,302.360 396.000,302.800 396.000 C 303.240 396.000,303.600 395.820,303.600 395.600 C 303.600 395.380,303.883 395.200,304.228 395.200 C 304.573 395.200,305.611 394.705,306.535 394.100 C 309.099 392.420,309.732 392.031,310.600 391.607 C 311.040 391.391,312.300 390.664,313.400 389.990 C 314.500 389.316,315.715 388.662,316.100 388.536 C 316.485 388.410,316.800 388.148,316.800 387.953 C 316.800 387.759,317.120 387.600,317.512 387.600 C 317.903 387.600,318.483 387.240,318.800 386.800 C 319.117 386.360,319.697 386.000,320.088 386.000 C 320.480 386.000,320.800 385.820,320.800 385.600 C 320.800 385.380,321.160 385.200,321.600 385.200 C 322.040 385.200,322.400 385.020,322.400 384.800 C 322.400 384.580,322.636 384.400,322.925 384.400 C 323.213 384.400,323.798 384.085,324.225 383.700 C 324.651 383.315,325.540 382.736,326.200 382.412 C 326.860 382.089,328.152 381.324,329.072 380.712 C 329.992 380.101,330.937 379.600,331.172 379.600 C 331.407 379.600,331.600 379.454,331.600 379.275 C 331.600 379.096,332.230 378.702,333.000 378.400 C 333.770 378.098,334.400 377.704,334.400 377.525 C 334.400 377.346,334.670 377.200,335.000 377.200 C 335.330 377.200,335.600 377.020,335.600 376.800 C 335.600 376.580,335.836 376.400,336.125 376.400 C 336.413 376.400,337.036 376.040,337.508 375.600 C 337.980 375.160,338.644 374.800,338.983 374.800 C 339.322 374.800,339.600 374.620,339.600 374.400 C 339.600 374.180,339.878 374.000,340.217 374.000 C 340.556 374.000,341.220 373.640,341.692 373.200 C 342.164 372.760,342.787 372.400,343.075 372.400 C 343.364 372.400,343.600 372.220,343.600 372.000 C 343.600 371.780,343.949 371.600,344.376 371.600 C 344.803 371.600,345.255 371.435,345.380 371.232 C 345.589 370.894,347.294 369.893,352.600 366.990 C 353.700 366.389,354.884 365.650,355.231 365.348 C 355.579 365.047,356.074 364.800,356.331 364.800 C 356.589 364.800,356.801 364.665,356.803 364.500 C 356.805 364.335,357.210 364.002,357.703 363.760 C 359.976 362.644,362.245 361.358,362.702 360.926 C 362.979 360.666,363.564 360.338,364.002 360.199 C 364.441 360.060,364.800 359.778,364.800 359.573 C 364.800 359.368,365.160 359.200,365.600 359.200 C 366.040 359.200,366.400 359.048,366.400 358.863 C 366.400 358.677,367.255 358.093,368.300 357.563 C 369.345 357.034,370.549 356.286,370.975 355.901 C 371.402 355.515,371.987 355.200,372.275 355.200 C 372.564 355.200,372.800 355.020,372.800 354.800 C 372.800 354.580,373.160 354.400,373.600 354.400 C 374.040 354.400,374.400 354.241,374.400 354.047 C 374.400 353.852,374.715 353.593,375.100 353.471 C 375.785 353.254,378.004 351.996,378.400 351.600 C 378.510 351.490,379.005 351.175,379.500 350.900 C 379.995 350.625,380.805 350.175,381.300 349.900 C 381.795 349.625,382.290 349.310,382.400 349.199 C 382.510 349.089,383.140 348.729,383.800 348.400 C 384.460 348.071,385.090 347.711,385.200 347.601 C 385.310 347.490,386.390 346.874,387.600 346.232 C 388.810 345.589,389.890 344.955,390.000 344.822 C 390.110 344.689,391.055 344.135,392.100 343.591 C 393.145 343.047,394.000 342.466,394.000 342.301 C 394.000 342.135,394.283 342.000,394.629 342.000 C 396.496 342.000,396.489 342.143,397.004 287.400 C 397.116 275.520,397.293 260.310,397.397 253.600 C 397.501 246.890,397.684 230.150,397.804 216.400 C 397.923 202.650,398.103 187.620,398.202 183.000 C 398.301 178.380,398.476 160.200,398.591 142.600 C 398.706 125.000,398.976 108.620,399.191 106.200 C 399.406 103.780,399.585 93.880,399.587 84.200 C 399.590 74.520,399.713 52.605,399.861 35.500 C 400.008 18.395,400.018 4.400,399.883 4.400 C 399.748 4.400,399.338 5.075,398.972 5.900 C 398.607 6.725,397.981 8.120,397.581 9.000 C 395.095 14.479,394.400 16.057,394.400 16.227 C 394.400 16.332,393.680 17.961,392.800 19.848 C 391.920 21.735,391.200 23.343,391.200 23.421 C 391.200 23.550,382.454 43.580,381.602 45.400 C 381.396 45.840,379.777 49.530,378.003 53.600 C 376.230 57.670,374.423 61.692,373.989 62.538 C 373.555 63.384,373.200 64.221,373.200 64.398 C 373.200 64.575,372.480 66.265,371.600 68.152 C 370.720 70.039,370.000 71.674,370.000 71.785 C 370.000 71.896,369.460 73.102,368.800 74.465 C 368.140 75.827,367.600 77.086,367.600 77.263 C 367.600 77.440,366.906 79.073,366.057 80.892 C 365.208 82.712,363.112 87.440,361.398 91.400 C 359.684 95.360,357.768 99.730,357.141 101.110 C 356.513 102.491,356.000 103.697,356.000 103.792 C 356.000 103.887,355.480 105.097,354.845 106.482 C 354.210 107.867,353.379 109.720,352.998 110.600 C 352.618 111.480,351.787 113.306,351.153 114.657 C 350.519 116.009,350.000 117.210,350.000 117.328 C 350.000 117.445,349.370 118.905,348.600 120.572 C 347.830 122.239,347.200 123.685,347.200 123.784 C 347.200 123.883,346.680 125.097,346.045 126.482 C 345.410 127.867,344.619 129.630,344.287 130.400 C 343.217 132.885,340.799 138.326,339.310 141.600 C 338.759 142.810,337.412 145.870,336.315 148.400 C 334.218 153.237,330.850 160.956,329.509 164.000 C 329.072 164.990,328.446 166.430,328.116 167.200 C 327.787 167.970,327.194 169.320,326.800 170.200 C 326.406 171.080,325.794 172.475,325.442 173.300 C 324.408 175.716,323.752 177.185,322.026 180.940 C 321.132 182.887,320.400 184.625,320.400 184.802 C 320.400 184.979,320.043 185.816,319.608 186.662 C 319.172 187.508,315.833 195.040,312.188 203.400 C 305.310 219.176,305.079 219.700,303.569 223.000 C 302.700 224.899,302.651 225.494,302.604 234.800 C 302.557 244.062,302.312 246.756,301.027 252.200 C 300.923 252.640,300.543 254.260,300.182 255.800 C 298.449 263.186,291.094 278.563,288.032 281.200 C 287.905 281.310,287.175 282.210,286.412 283.200 C 282.842 287.828,278.786 291.770,271.595 297.600 C 269.232 299.516,264.916 302.400,264.413 302.400 C 264.186 302.400,263.999 302.535,263.997 302.700 C 263.995 302.865,263.590 303.192,263.097 303.427 C 262.604 303.662,260.850 304.572,259.200 305.450 C 257.550 306.327,255.390 307.365,254.400 307.755 C 253.410 308.146,251.970 308.739,251.200 309.074 C 250.430 309.408,249.440 309.836,249.000 310.026 C 248.322 310.317,243.349 311.909,239.000 313.226 C 238.340 313.426,236.810 313.789,235.600 314.034 C 234.390 314.279,232.590 314.651,231.600 314.861 C 221.191 317.073,199.838 318.067,190.116 316.791 C 182.441 315.784,173.067 314.090,169.000 312.976 C 159.553 310.388,156.462 309.370,150.100 306.746 C 149.495 306.497,148.640 306.160,148.200 305.997 C 145.699 305.072,136.981 300.840,134.378 299.287 C 133.375 298.689,131.665 297.670,130.578 297.022 C 127.009 294.896,120.562 290.497,116.801 287.622 C 114.771 286.070,112.995 284.800,112.854 284.800 C 112.445 284.800,109.199 281.726,109.207 281.346 C 109.216 280.934,110.920 278.776,112.607 277.041 C 113.270 276.359,114.252 275.170,114.788 274.400 C 115.324 273.630,116.049 272.730,116.400 272.400 C 116.751 272.070,117.419 271.254,117.884 270.587 L 118.731 269.374 117.606 267.080 C 116.988 265.819,116.210 264.115,115.879 263.293 C 115.547 262.472,114.629 260.404,113.838 258.698 C 113.047 256.992,112.400 255.525,112.400 255.438 C 112.400 255.351,111.680 253.735,110.800 251.848 C 109.920 249.961,109.200 248.295,109.200 248.145 C 109.200 247.879,107.230 243.461,104.548 237.711 C 103.806 236.123,103.200 234.731,103.200 234.619 C 103.200 234.507,102.502 232.927,101.650 231.107 C 100.797 229.288,99.788 227.080,99.407 226.200 C 99.026 225.320,98.305 223.700,97.805 222.600 C 97.305 221.500,96.585 219.880,96.205 219.000 C 95.825 218.120,95.064 216.410,94.515 215.200 C 93.966 213.990,93.364 212.640,93.177 212.200 C 92.991 211.760,92.110 209.807,91.219 207.860 C 90.329 205.913,89.600 204.245,89.600 204.152 C 89.600 204.059,88.880 202.461,88.000 200.600 C 87.120 198.739,86.400 197.139,86.400 197.044 C 86.400 196.949,85.790 195.550,85.044 193.936 C 84.298 192.321,82.567 188.480,81.198 185.400 C 79.828 182.320,78.347 178.990,77.907 178.000 C 77.466 177.010,76.767 175.435,76.353 174.500 C 74.927 171.280,73.904 168.995,72.996 167.000 C 72.496 165.900,71.775 164.280,71.395 163.400 C 71.015 162.520,70.293 160.900,69.790 159.800 C 69.287 158.700,68.499 156.945,68.038 155.900 C 67.577 154.855,66.823 153.145,66.362 152.100 C 65.901 151.055,65.101 149.300,64.583 148.200 C 64.065 147.100,61.895 142.240,59.759 137.400 C 57.624 132.560,54.987 126.620,53.900 124.200 C 52.812 121.780,51.473 118.720,50.924 117.400 C 50.376 116.080,49.313 113.700,48.563 112.111 C 47.813 110.523,47.200 109.123,47.200 109.000 C 47.200 108.877,46.570 107.432,45.800 105.789 C 45.030 104.145,43.770 101.455,43.000 99.811 C 42.230 98.168,41.600 96.746,41.600 96.651 C 41.600 96.557,40.868 94.887,39.974 92.940 C 37.351 87.231,37.200 86.890,37.200 86.661 C 37.200 86.541,36.587 85.128,35.838 83.521 C 35.089 81.915,33.631 78.710,32.598 76.400 C 31.566 74.090,30.199 71.067,29.560 69.682 C 28.922 68.297,28.400 67.078,28.400 66.974 C 28.400 66.869,27.680 65.261,26.800 63.400 C 25.920 61.539,25.200 59.919,25.200 59.800 C 25.200 59.681,24.510 58.102,23.667 56.292 C 22.824 54.481,21.887 52.370,21.585 51.600 C 21.283 50.830,20.532 49.237,19.918 48.059 C 19.303 46.882,18.800 45.739,18.800 45.520 C 18.800 45.301,18.102 43.654,17.250 41.861 C 16.397 40.067,15.460 37.970,15.167 37.200 C 14.875 36.430,14.132 34.837,13.518 33.659 C 12.903 32.482,12.400 31.367,12.400 31.182 C 12.400 30.997,11.695 29.350,10.833 27.523 C 9.972 25.695,8.508 22.490,7.581 20.400 C 6.654 18.310,5.361 15.430,4.709 14.000 C 4.057 12.570,3.233 10.680,2.878 9.800 C 2.524 8.920,1.730 7.210,1.114 6.000 L -0.006 3.800 0.203 87.000 M290.544 97.856 C 289.915 98.656,289.220 99.511,289.000 99.756 C 288.780 100.000,288.108 100.859,287.506 101.665 C 286.904 102.471,286.184 103.376,285.906 103.675 C 285.628 103.975,284.772 105.025,284.006 106.010 C 283.239 106.994,282.390 108.070,282.119 108.400 C 281.849 108.730,280.073 110.980,278.173 113.400 C 276.273 115.820,274.331 118.253,273.859 118.806 C 273.387 119.359,272.508 120.468,271.906 121.271 C 271.304 122.074,270.584 122.971,270.306 123.265 C 270.028 123.559,269.308 124.459,268.706 125.265 C 268.104 126.071,267.384 126.971,267.106 127.265 C 266.828 127.559,266.125 128.430,265.545 129.200 C 262.575 133.143,262.660 133.134,258.000 130.000 C 256.037 128.680,254.352 127.600,254.256 127.600 C 254.160 127.600,252.848 126.848,251.341 125.930 C 244.591 121.816,234.612 117.868,227.300 116.417 C 226.145 116.188,224.270 115.796,223.132 115.546 C 220.219 114.906,205.528 114.905,203.000 115.544 C 198.465 116.692,197.678 116.953,194.981 118.199 C 192.038 119.559,189.018 122.187,188.046 124.234 C 186.375 127.755,185.710 131.496,186.491 132.986 L 187.067 134.086 187.583 132.840 C 188.921 129.611,194.532 125.850,200.157 124.411 C 217.515 119.971,240.546 125.728,259.565 139.260 C 260.756 140.107,261.940 140.800,262.195 140.800 C 262.715 140.800,262.664 140.861,277.008 122.800 C 282.686 115.650,289.012 107.705,291.066 105.145 C 295.217 99.970,295.367 99.507,293.481 97.678 C 291.850 96.097,291.930 96.092,290.544 97.856 M119.218 150.200 C 119.197 152.136,120.336 159.100,121.244 162.582 C 127.324 185.899,143.382 202.831,170.000 213.992 C 172.750 215.145,176.170 216.592,177.600 217.207 C 179.030 217.823,181.280 218.775,182.600 219.322 C 183.920 219.870,186.800 221.073,189.000 221.996 C 195.859 224.874,199.508 226.364,208.800 230.079 C 223.384 235.909,230.642 240.168,232.770 244.143 C 234.040 246.518,234.908 243.374,233.955 239.846 C 232.896 235.927,229.294 231.425,225.754 229.597 C 225.120 229.270,224.510 228.911,224.400 228.801 C 223.940 228.339,220.680 226.800,220.162 226.800 C 219.853 226.800,219.600 226.620,219.600 226.400 C 219.600 226.180,219.276 226.000,218.880 226.000 C 218.484 226.000,217.989 225.847,217.780 225.660 C 217.571 225.472,216.140 224.827,214.600 224.226 C 213.060 223.625,211.260 222.895,210.600 222.604 C 209.940 222.313,206.970 221.137,204.000 219.991 C 201.030 218.846,197.865 217.578,196.968 217.175 C 196.070 216.772,194.363 216.058,193.175 215.590 C 191.986 215.122,190.060 214.302,188.895 213.769 C 187.730 213.236,186.690 212.800,186.584 212.800 C 186.478 212.800,185.538 212.422,184.496 211.960 C 183.453 211.498,182.150 210.937,181.600 210.713 C 181.050 210.490,180.287 210.148,179.905 209.953 C 179.523 209.759,178.938 209.600,178.605 209.600 C 178.272 209.600,178.000 209.420,178.000 209.200 C 178.000 208.980,177.728 208.800,177.395 208.800 C 177.062 208.800,176.477 208.641,176.095 208.447 C 175.713 208.252,174.950 207.911,174.400 207.687 C 173.850 207.464,172.680 206.972,171.800 206.593 C 169.446 205.581,167.578 204.781,166.000 204.110 C 162.964 202.818,160.090 201.380,157.780 199.996 C 156.449 199.199,155.099 198.441,154.780 198.311 C 149.971 196.358,136.617 184.371,132.423 178.243 C 132.106 177.779,131.724 177.310,131.574 177.200 C 130.852 176.669,127.706 171.337,125.793 167.400 C 123.954 163.616,123.038 161.193,120.793 154.172 C 120.577 153.496,120.400 152.662,120.400 152.318 C 120.400 151.973,120.137 151.086,119.816 150.346 L 119.231 149.000 119.218 150.200 M142.042 311.365 C 180.480 329.621,226.021 330.473,259.148 313.555 C 265.653 310.233,265.582 309.521,260.013 322.200 C 257.790 327.260,255.817 331.760,255.629 332.200 C 255.441 332.640,254.727 334.223,254.043 335.718 C 253.360 337.213,252.800 338.522,252.800 338.627 C 252.800 338.732,252.080 340.361,251.200 342.248 C 250.320 344.135,249.600 345.825,249.600 346.002 C 249.600 346.179,249.245 347.016,248.811 347.862 C 247.943 349.554,240.000 367.552,240.000 367.827 C 240.000 367.921,239.476 369.123,238.836 370.499 C 238.196 371.875,236.775 375.070,235.678 377.600 C 234.581 380.130,233.125 383.399,232.442 384.865 C 231.759 386.330,231.200 387.622,231.200 387.735 C 231.200 387.849,230.570 389.305,229.800 390.972 C 229.030 392.639,228.400 394.085,228.400 394.184 C 228.400 394.283,227.880 395.497,227.245 396.882 C 226.610 398.267,225.819 400.030,225.487 400.800 C 225.156 401.570,224.505 403.055,224.042 404.100 C 223.579 405.145,222.821 406.855,222.358 407.900 C 221.895 408.945,221.246 410.430,220.916 411.200 C 220.587 411.970,219.976 413.365,219.558 414.300 C 219.141 415.235,218.459 416.765,218.042 417.700 C 217.624 418.635,217.013 420.030,216.684 420.800 C 216.354 421.570,215.727 423.010,215.289 424.000 C 214.852 424.990,213.909 427.150,213.194 428.800 C 212.479 430.450,211.288 433.118,210.547 434.729 C 209.806 436.340,209.200 437.762,209.200 437.889 C 209.200 438.016,208.731 439.128,208.158 440.360 C 207.585 441.592,206.978 442.960,206.809 443.400 C 206.640 443.840,206.126 445.010,205.668 446.000 C 205.210 446.990,204.203 449.195,203.431 450.900 C 201.898 454.285,201.179 454.710,200.381 452.700 C 200.098 451.985,199.176 449.919,198.333 448.108 C 197.490 446.298,196.800 444.741,196.800 444.648 C 196.800 444.555,196.068 442.887,195.174 440.940 C 194.279 438.993,193.311 436.860,193.021 436.200 C 191.858 433.548,191.182 432.045,189.626 428.660 C 188.732 426.713,188.000 425.053,188.000 424.970 C 188.000 424.888,187.459 423.640,186.799 422.197 C 186.138 420.755,182.829 413.325,179.445 405.687 C 176.060 398.049,172.841 390.810,172.291 389.600 C 171.740 388.390,170.892 386.500,170.407 385.400 C 169.922 384.300,169.091 382.455,168.562 381.300 C 166.760 377.367,165.687 375.002,165.068 373.600 C 158.995 359.841,156.073 353.271,154.959 350.864 C 154.212 349.250,153.600 347.860,153.600 347.776 C 153.600 347.692,153.170 346.673,152.645 345.512 C 152.119 344.350,151.291 342.500,150.803 341.400 C 150.316 340.300,149.417 338.320,148.805 337.000 C 148.194 335.680,147.384 333.880,147.005 333.000 C 146.627 332.120,145.976 330.635,145.558 329.700 C 145.141 328.765,144.440 327.190,144.000 326.200 C 143.560 325.210,142.840 323.590,142.400 322.600 C 140.161 317.563,139.153 315.326,137.407 311.520 C 136.846 310.297,136.826 309.200,137.365 309.200 C 137.430 309.200,139.534 310.174,142.042 311.365 " stroke="none" fill="#415d68" fill-rule="evenodd"></path><path id="path2" d="M-0.000 1.760 C -0.000 2.975,0.495 4.583,1.600 6.952 C 2.480 8.839,3.200 10.461,3.200 10.556 C 3.200 10.651,3.807 12.050,4.550 13.664 C 5.292 15.279,6.657 18.310,7.583 20.400 C 8.509 22.490,9.972 25.695,10.833 27.523 C 11.695 29.350,12.400 30.997,12.400 31.182 C 12.400 31.367,12.903 32.482,13.518 33.659 C 14.132 34.837,14.875 36.430,15.167 37.200 C 15.460 37.970,16.397 40.067,17.250 41.861 C 18.102 43.654,18.800 45.301,18.800 45.520 C 18.800 45.739,19.303 46.882,19.918 48.059 C 20.532 49.237,21.283 50.830,21.585 51.600 C 21.887 52.370,22.824 54.481,23.667 56.292 C 24.510 58.102,25.200 59.681,25.200 59.800 C 25.200 59.919,25.920 61.539,26.800 63.400 C 27.680 65.261,28.400 66.869,28.400 66.974 C 28.400 67.078,28.922 68.297,29.560 69.682 C 30.199 71.067,31.566 74.090,32.598 76.400 C 33.631 78.710,35.089 81.915,35.838 83.521 C 36.587 85.128,37.200 86.541,37.200 86.661 C 37.200 86.890,37.351 87.231,39.974 92.940 C 40.868 94.887,41.600 96.557,41.600 96.651 C 41.600 96.746,42.230 98.168,43.000 99.811 C 43.770 101.455,45.030 104.145,45.800 105.789 C 46.570 107.432,47.200 108.877,47.200 109.000 C 47.200 109.123,47.813 110.523,48.563 112.111 C 49.313 113.700,50.376 116.080,50.924 117.400 C 51.473 118.720,52.812 121.780,53.900 124.200 C 54.987 126.620,57.624 132.560,59.759 137.400 C 61.895 142.240,64.065 147.100,64.583 148.200 C 65.101 149.300,65.901 151.055,66.362 152.100 C 66.823 153.145,67.577 154.855,68.038 155.900 C 68.499 156.945,69.287 158.700,69.790 159.800 C 70.293 160.900,71.015 162.520,71.395 163.400 C 71.775 164.280,72.496 165.900,72.996 167.000 C 73.904 168.995,74.927 171.280,76.353 174.500 C 76.767 175.435,77.466 177.010,77.907 178.000 C 78.347 178.990,79.828 182.320,81.198 185.400 C 82.567 188.480,84.298 192.321,85.044 193.936 C 85.790 195.550,86.400 196.949,86.400 197.044 C 86.400 197.139,87.120 198.739,88.000 200.600 C 88.880 202.461,89.600 204.059,89.600 204.152 C 89.600 204.245,90.329 205.913,91.219 207.860 C 92.110 209.807,92.991 211.760,93.177 212.200 C 93.364 212.640,93.966 213.990,94.515 215.200 C 95.064 216.410,95.825 218.120,96.205 219.000 C 96.585 219.880,97.305 221.500,97.805 222.600 C 98.305 223.700,99.026 225.320,99.407 226.200 C 99.788 227.080,100.797 229.288,101.650 231.107 C 102.502 232.927,103.200 234.507,103.200 234.619 C 103.200 234.731,103.806 236.123,104.548 237.711 C 107.230 243.461,109.200 247.879,109.200 248.145 C 109.200 248.295,109.920 249.961,110.800 251.848 C 111.680 253.735,112.400 255.351,112.400 255.438 C 112.400 255.525,113.047 256.992,113.838 258.698 C 114.629 260.404,115.547 262.472,115.879 263.293 C 116.210 264.115,116.988 265.819,117.606 267.080 L 118.731 269.374 117.884 270.587 C 117.419 271.254,116.751 272.070,116.400 272.400 C 116.049 272.730,115.324 273.630,114.788 274.400 C 114.252 275.170,113.270 276.359,112.607 277.041 C 108.517 281.248,108.537 282.059,112.800 284.739 C 113.350 285.085,114.835 286.151,116.100 287.107 C 119.696 289.827,118.796 288.774,114.892 285.695 C 108.895 280.963,108.961 282.080,114.300 275.721 C 116.665 272.904,118.903 270.130,119.272 269.556 C 119.642 268.982,120.183 268.262,120.474 267.956 C 120.765 267.650,121.813 266.412,122.802 265.204 C 123.791 263.996,124.983 262.556,125.451 262.004 C 125.920 261.452,129.424 257.220,133.239 252.600 C 137.055 247.980,140.274 244.110,140.394 244.000 C 140.513 243.890,141.419 242.812,142.405 241.604 C 143.392 240.396,144.609 238.940,145.109 238.368 C 145.609 237.796,146.273 236.984,146.585 236.564 C 147.261 235.653,147.331 235.687,152.305 239.360 C 160.317 245.276,173.953 252.704,181.000 254.991 C 182.100 255.348,183.360 255.791,183.800 255.975 C 184.240 256.158,185.410 256.530,186.400 256.801 C 187.390 257.071,188.650 257.433,189.200 257.604 C 189.750 257.775,191.280 258.128,192.600 258.390 C 193.920 258.651,195.810 259.072,196.800 259.326 C 197.909 259.610,201.747 259.766,206.800 259.735 C 214.768 259.684,215.648 259.586,221.606 258.082 C 234.665 254.784,239.094 239.838,229.410 231.743 C 227.394 230.059,224.400 228.228,224.400 228.680 C 224.400 228.858,224.928 229.238,225.573 229.524 C 228.934 231.011,232.882 235.874,233.955 239.846 C 234.908 243.374,234.040 246.518,232.770 244.143 C 230.642 240.168,223.384 235.909,208.800 230.079 C 199.508 226.364,195.859 224.874,189.000 221.996 C 186.800 221.073,183.920 219.870,182.600 219.322 C 181.280 218.775,179.030 217.823,177.600 217.207 C 176.170 216.592,172.750 215.145,170.000 213.992 C 143.382 202.831,127.324 185.899,121.244 162.582 C 120.333 159.089,119.195 152.126,119.220 150.200 L 119.236 149.000 119.822 150.200 L 120.407 151.400 120.180 149.800 C 120.055 148.920,119.772 147.120,119.551 145.800 C 118.895 141.880,118.657 129.745,119.174 126.600 C 120.216 120.267,121.898 113.565,123.189 110.600 C 123.381 110.160,123.865 108.990,124.265 108.000 C 132.941 86.514,153.921 69.175,180.400 61.606 C 181.390 61.323,182.740 60.935,183.400 60.744 C 195.859 57.131,216.067 56.315,231.200 58.814 C 235.162 59.468,241.907 60.932,244.000 61.592 C 244.550 61.765,245.810 62.129,246.800 62.400 C 248.827 62.955,250.615 63.527,251.800 64.000 C 252.240 64.176,253.230 64.536,254.000 64.800 C 254.770 65.064,255.850 65.467,256.400 65.694 C 256.950 65.921,257.760 66.245,258.200 66.413 C 269.665 70.794,284.463 80.151,293.093 88.475 C 295.926 91.208,295.933 90.996,292.903 94.400 C 291.074 96.455,285.966 102.816,269.493 123.556 C 261.978 133.017,262.595 132.617,259.147 130.260 C 248.857 123.229,237.034 117.853,227.800 116.008 C 226.480 115.744,224.500 115.328,223.400 115.084 C 220.469 114.433,205.130 114.471,202.400 115.136 C 198.495 116.087,194.650 117.588,192.551 118.981 C 190.545 120.312,187.289 123.822,187.689 124.223 C 187.801 124.334,188.217 123.924,188.614 123.312 C 189.901 121.332,192.138 119.543,195.000 118.205 C 197.678 116.953,198.458 116.694,203.000 115.544 C 205.528 114.905,220.219 114.906,223.132 115.546 C 224.270 115.796,226.145 116.188,227.300 116.417 C 234.612 117.868,244.591 121.816,251.341 125.930 C 252.848 126.848,254.160 127.600,254.256 127.600 C 254.352 127.600,256.037 128.680,258.000 130.000 C 262.660 133.134,262.575 133.143,265.545 129.200 C 266.125 128.430,266.828 127.559,267.106 127.265 C 267.384 126.971,268.104 126.071,268.706 125.265 C 269.308 124.459,270.028 123.559,270.306 123.265 C 270.584 122.971,271.304 122.074,271.906 121.271 C 272.508 120.468,273.387 119.359,273.859 118.806 C 274.331 118.253,276.273 115.820,278.173 113.400 C 280.073 110.980,281.849 108.730,282.119 108.400 C 282.390 108.070,283.239 106.990,284.006 106.000 C 284.772 105.010,285.493 104.110,285.606 104.000 C 285.925 103.691,287.689 101.491,288.800 100.015 C 289.350 99.284,290.286 98.128,290.880 97.446 L 291.961 96.205 293.380 97.581 C 295.378 99.517,295.252 99.927,291.066 105.145 C 289.012 107.705,282.686 115.650,277.008 122.800 C 262.664 140.861,262.715 140.800,262.195 140.800 C 261.940 140.800,260.756 140.107,259.565 139.260 C 240.546 125.728,217.515 119.971,200.157 124.411 C 194.534 125.849,188.921 129.611,187.585 132.836 L 187.070 134.079 186.549 133.139 L 186.028 132.200 186.014 133.151 C 185.923 139.247,193.644 144.729,212.800 152.167 C 217.750 154.089,222.160 155.812,222.600 155.994 C 223.040 156.177,226.730 157.620,230.800 159.200 C 234.870 160.780,238.650 162.261,239.200 162.490 C 240.657 163.097,242.088 163.666,243.000 164.000 C 244.194 164.437,246.108 165.247,246.895 165.647 C 247.277 165.841,247.774 166.000,247.999 166.000 C 248.224 166.000,249.172 166.339,250.104 166.753 C 251.037 167.167,252.430 167.738,253.200 168.023 C 284.848 179.729,300.961 201.587,302.426 234.800 L 302.735 241.800 302.603 233.634 C 302.474 225.627,302.491 225.424,303.479 223.234 C 304.033 222.005,304.728 220.460,305.024 219.800 C 305.319 219.140,308.543 211.760,312.188 203.400 C 315.833 195.040,319.172 187.508,319.608 186.662 C 320.043 185.816,320.400 184.979,320.400 184.802 C 320.400 184.625,321.132 182.887,322.026 180.940 C 323.752 177.185,324.408 175.716,325.442 173.300 C 325.794 172.475,326.406 171.080,326.800 170.200 C 327.194 169.320,327.787 167.970,328.116 167.200 C 328.446 166.430,329.072 164.990,329.509 164.000 C 330.850 160.956,334.218 153.237,336.315 148.400 C 337.412 145.870,338.759 142.810,339.310 141.600 C 340.724 138.491,343.271 132.760,344.287 130.400 C 344.619 129.630,345.410 127.867,346.045 126.482 C 346.680 125.097,347.200 123.883,347.200 123.784 C 347.200 123.685,347.830 122.239,348.600 120.572 C 349.370 118.905,350.000 117.445,350.000 117.328 C 350.000 117.210,350.519 116.009,351.153 114.657 C 351.787 113.306,352.618 111.480,352.998 110.600 C 353.379 109.720,354.210 107.867,354.845 106.482 C 355.480 105.097,356.000 103.887,356.000 103.792 C 356.000 103.697,356.513 102.491,357.141 101.110 C 357.768 99.730,359.684 95.360,361.398 91.400 C 363.112 87.440,365.208 82.712,366.057 80.892 C 366.906 79.073,367.600 77.440,367.600 77.263 C 367.600 77.086,368.140 75.827,368.800 74.465 C 369.460 73.102,370.000 71.896,370.000 71.785 C 370.000 71.674,370.720 70.039,371.600 68.152 C 372.480 66.265,373.200 64.575,373.200 64.398 C 373.200 64.221,373.555 63.384,373.989 62.538 C 374.423 61.692,376.230 57.670,378.003 53.600 C 379.777 49.530,381.396 45.840,381.602 45.400 C 382.454 43.580,391.200 23.550,391.200 23.421 C 391.200 23.343,391.920 21.735,392.800 19.848 C 393.680 17.961,394.400 16.332,394.400 16.227 C 394.400 16.055,395.051 14.578,397.672 8.800 C 398.121 7.810,398.828 6.308,399.244 5.462 C 399.674 4.588,400.000 3.077,400.000 1.962 L 400.000 0.000 200.000 0.000 L 0.000 0.000 -0.000 1.760 M186.850 125.849 C 186.587 126.428,186.294 127.734,186.199 128.751 L 186.028 130.600 186.451 128.800 C 186.683 127.810,187.067 126.595,187.304 126.101 C 187.541 125.606,187.644 125.110,187.532 124.999 C 187.421 124.888,187.114 125.270,186.850 125.849 M120.434 152.400 C 120.422 152.950,120.587 153.670,120.800 154.000 C 121.309 154.787,121.309 153.384,120.800 152.200 C 120.485 151.467,120.454 151.484,120.434 152.400 M121.234 155.400 C 121.222 155.840,121.387 156.470,121.600 156.800 C 122.114 157.595,122.114 156.596,121.600 155.400 L 121.256 154.600 121.234 155.400 M122.027 157.913 C 121.989 158.625,124.409 164.910,124.909 165.400 C 125.373 165.854,125.376 165.864,123.811 161.800 C 122.271 157.803,122.057 157.337,122.027 157.913 M125.200 166.267 C 125.200 167.055,130.729 176.505,131.597 177.200 C 131.734 177.310,132.106 177.779,132.423 178.243 C 136.617 184.371,149.971 196.358,154.780 198.311 C 155.099 198.441,156.449 199.199,157.780 199.996 C 160.090 201.380,162.964 202.818,166.000 204.110 C 166.770 204.437,168.075 204.996,168.900 205.353 C 171.577 206.508,173.379 207.273,174.400 207.687 C 174.950 207.911,175.713 208.252,176.095 208.447 C 176.477 208.641,177.062 208.800,177.395 208.800 C 177.728 208.800,178.000 208.980,178.000 209.200 C 178.000 209.420,178.272 209.600,178.605 209.600 C 178.938 209.600,179.523 209.759,179.905 209.953 C 180.287 210.148,181.050 210.490,181.600 210.713 C 182.150 210.937,183.453 211.498,184.496 211.960 C 185.538 212.422,186.478 212.800,186.584 212.800 C 186.690 212.800,187.730 213.236,188.895 213.769 C 190.060 214.302,191.986 215.122,193.175 215.590 C 194.363 216.058,196.070 216.772,196.968 217.175 C 200.286 218.666,209.256 222.077,209.422 221.912 C 209.516 221.818,206.939 220.691,203.696 219.409 C 197.987 217.151,196.408 216.495,192.604 214.800 C 191.617 214.360,190.715 214.000,190.600 214.000 C 190.485 214.000,189.538 213.619,188.496 213.153 C 185.289 211.722,184.280 211.294,182.000 210.400 C 180.790 209.926,179.260 209.290,178.600 208.987 C 177.940 208.684,174.340 207.151,170.600 205.580 C 149.332 196.644,135.149 184.703,126.967 168.843 C 125.599 166.190,125.200 165.609,125.200 166.267 M210.220 222.339 C 210.429 222.525,212.130 223.273,214.000 224.000 C 215.870 224.727,217.571 225.475,217.780 225.661 C 217.989 225.848,218.439 225.995,218.780 225.988 C 219.706 225.970,218.546 225.369,214.088 223.554 C 210.118 221.939,209.583 221.771,210.220 222.339 M221.200 226.971 C 221.200 227.247,223.714 228.420,223.902 228.231 C 223.997 228.136,223.527 227.776,222.857 227.429 C 221.609 226.784,221.200 226.671,221.200 226.971 M301.840 244.931 C 301.669 246.434,301.621 247.754,301.732 247.865 C 302.011 248.144,302.517 243.881,302.315 242.953 C 302.225 242.539,302.011 243.429,301.840 244.931 M301.000 250.400 C 300.848 251.091,300.814 251.747,300.924 251.857 C 301.034 251.967,301.248 251.491,301.400 250.800 C 301.552 250.109,301.586 249.453,301.476 249.343 C 301.366 249.233,301.152 249.709,301.000 250.400 M300.273 253.753 C 300.123 254.145,300.011 254.766,300.025 255.133 C 300.042 255.575,300.181 255.474,300.437 254.834 C 300.649 254.303,300.761 253.682,300.685 253.454 C 300.609 253.227,300.424 253.361,300.273 253.753 M299.473 256.953 C 299.323 257.345,299.211 257.966,299.225 258.333 C 299.242 258.775,299.381 258.674,299.637 258.034 C 299.849 257.503,299.961 256.882,299.885 256.654 C 299.809 256.427,299.624 256.561,299.473 256.953 M294.640 269.671 C 294.072 270.809,293.667 271.801,293.740 271.873 C 293.847 271.981,294.524 270.737,295.902 267.900 C 295.982 267.735,295.963 267.600,295.859 267.600 C 295.756 267.600,295.207 268.532,294.640 269.671 M292.557 273.700 C 292.192 274.415,290.938 276.395,289.769 278.100 C 288.600 279.805,287.769 281.197,287.922 281.194 C 288.429 281.182,293.924 272.400,293.424 272.400 C 293.312 272.400,292.922 272.985,292.557 273.700 M285.865 283.400 C 285.037 284.390,284.484 285.200,284.636 285.200 C 284.911 285.200,285.284 284.776,286.833 282.700 C 288.113 280.986,287.531 281.406,285.865 283.400 M280.200 289.525 C 278.000 291.679,275.300 294.225,274.200 295.184 C 273.100 296.142,272.560 296.677,273.000 296.372 C 274.176 295.558,279.193 291.194,280.591 289.768 C 285.791 284.471,285.530 284.308,280.200 289.525 M118.994 289.190 C 119.279 289.652,127.224 295.023,130.578 297.021 C 131.665 297.670,133.375 298.689,134.378 299.287 C 136.981 300.840,145.699 305.072,148.200 305.997 C 149.128 306.340,150.578 306.917,152.000 307.509 C 158.014 310.013,172.544 314.285,173.717 313.894 C 173.960 313.813,172.818 313.433,171.180 313.050 C 169.541 312.667,167.750 312.205,167.200 312.023 C 166.650 311.841,165.390 311.464,164.400 311.185 C 149.966 307.110,136.565 300.831,123.662 292.096 C 120.946 290.258,118.845 288.950,118.994 289.190 M271.423 297.163 C 270.466 298.711,258.971 305.312,252.600 307.971 C 250.840 308.706,249.040 309.457,248.600 309.640 C 246.922 310.339,240.474 312.330,237.600 313.036 C 235.950 313.441,234.914 313.837,235.298 313.915 C 235.682 313.994,237.032 313.765,238.298 313.406 C 241.584 312.476,248.057 310.432,249.000 310.026 C 249.440 309.836,250.430 309.408,251.200 309.074 C 251.970 308.739,253.410 308.146,254.400 307.755 C 255.390 307.365,257.550 306.327,259.200 305.450 C 260.850 304.572,262.604 303.662,263.097 303.427 C 263.590 303.192,263.995 302.865,263.997 302.700 C 263.999 302.535,264.188 302.400,264.418 302.400 C 264.648 302.400,266.133 301.506,267.718 300.413 C 271.553 297.768,272.184 297.251,271.911 296.978 C 271.784 296.851,271.564 296.934,271.423 297.163 M136.988 309.620 C 136.845 309.851,137.033 310.706,137.407 311.520 C 139.153 315.326,140.161 317.563,142.400 322.600 C 142.840 323.590,143.560 325.210,144.000 326.200 C 144.440 327.190,145.141 328.765,145.558 329.700 C 145.976 330.635,146.627 332.120,147.005 333.000 C 147.384 333.880,148.194 335.680,148.805 337.000 C 149.417 338.320,150.316 340.300,150.803 341.400 C 151.291 342.500,152.119 344.350,152.645 345.512 C 153.170 346.673,153.600 347.692,153.600 347.776 C 153.600 347.860,154.212 349.250,154.959 350.864 C 156.073 353.271,158.995 359.841,165.068 373.600 C 165.687 375.002,166.760 377.367,168.562 381.300 C 169.091 382.455,169.922 384.300,170.407 385.400 C 170.892 386.500,171.740 388.390,172.291 389.600 C 172.841 390.810,176.060 398.049,179.445 405.687 C 182.829 413.325,186.138 420.755,186.799 422.197 C 187.459 423.640,188.000 424.888,188.000 424.970 C 188.000 425.053,188.732 426.713,189.626 428.660 C 191.182 432.045,191.858 433.548,193.021 436.200 C 193.311 436.860,194.279 438.993,195.174 440.940 C 196.068 442.887,196.800 444.555,196.800 444.648 C 196.800 444.741,197.490 446.298,198.333 448.108 C 199.176 449.919,200.098 451.985,200.381 452.700 C 201.179 454.710,201.898 454.285,203.431 450.900 C 204.203 449.195,205.210 446.990,205.668 446.000 C 206.126 445.010,206.640 443.840,206.809 443.400 C 206.978 442.960,207.585 441.592,208.158 440.360 C 208.731 439.128,209.200 438.016,209.200 437.889 C 209.200 437.762,209.806 436.340,210.547 434.729 C 211.288 433.118,212.479 430.450,213.194 428.800 C 213.909 427.150,214.852 424.990,215.289 424.000 C 215.727 423.010,216.354 421.570,216.684 420.800 C 217.013 420.030,217.624 418.635,218.042 417.700 C 218.459 416.765,219.141 415.235,219.558 414.300 C 219.976 413.365,220.587 411.970,220.916 411.200 C 221.246 410.430,221.895 408.945,222.358 407.900 C 222.821 406.855,223.579 405.145,224.042 404.100 C 224.505 403.055,225.156 401.570,225.487 400.800 C 225.819 400.030,226.610 398.267,227.245 396.882 C 227.880 395.497,228.400 394.283,228.400 394.184 C 228.400 394.085,229.030 392.639,229.800 390.972 C 230.570 389.305,231.200 387.849,231.200 387.735 C 231.200 387.622,231.759 386.330,232.442 384.865 C 233.125 383.399,234.581 380.130,235.678 377.600 C 236.775 375.070,238.196 371.875,238.836 370.499 C 239.476 369.123,240.000 367.921,240.000 367.827 C 240.000 367.552,247.943 349.554,248.811 347.862 C 249.245 347.016,249.600 346.179,249.600 346.002 C 249.600 345.825,250.320 344.135,251.200 342.248 C 252.080 340.361,252.800 338.732,252.800 338.627 C 252.800 338.522,253.360 337.213,254.043 335.718 C 254.727 334.223,255.441 332.640,255.629 332.200 C 255.817 331.760,257.790 327.260,260.013 322.200 C 265.582 309.521,265.653 310.233,259.148 313.555 C 226.021 330.473,180.480 329.621,142.042 311.365 C 136.877 308.912,137.329 309.068,136.988 309.620 M177.600 314.822 C 179.470 315.230,181.450 315.553,182.000 315.540 C 182.771 315.523,182.680 315.444,181.600 315.197 C 178.149 314.406,175.873 314.003,175.069 314.041 C 174.591 314.063,175.730 314.415,177.600 314.822 M231.800 314.400 C 231.071 314.713,231.088 314.744,232.000 314.744 C 232.550 314.744,233.360 314.589,233.800 314.400 C 234.529 314.087,234.512 314.056,233.600 314.056 C 233.050 314.056,232.240 314.211,231.800 314.400 M227.600 315.200 C 226.628 315.511,226.633 315.520,227.800 315.520 C 228.460 315.520,229.450 315.376,230.000 315.200 C 230.972 314.889,230.967 314.880,229.800 314.880 C 229.140 314.880,228.150 315.024,227.600 315.200 M184.200 316.000 C 184.860 316.168,186.210 316.306,187.200 316.307 L 189.000 316.308 187.400 315.977 C 186.520 315.795,185.170 315.657,184.400 315.670 L 183.000 315.695 184.200 316.000 M222.906 315.863 C 222.634 315.973,219.754 316.294,216.506 316.577 C 212.041 316.966,211.267 317.105,213.335 317.146 C 215.958 317.198,225.990 316.143,226.356 315.777 C 226.597 315.536,223.524 315.613,222.906 315.863 M190.800 316.820 C 191.790 316.997,193.950 317.127,195.600 317.109 L 198.600 317.078 196.000 316.786 C 194.570 316.625,192.410 316.495,191.200 316.497 L 189.000 316.500 190.800 316.820 " stroke="none" fill="#6494a4" fill-rule="evenodd"></path><path id="path3" d="M202.400 57.633 C 192.645 58.568,183.453 60.436,175.400 63.118 C 151.810 70.975,132.301 88.098,124.265 108.000 C 123.865 108.990,123.381 110.160,123.189 110.600 C 121.945 113.458,120.399 119.552,119.226 126.224 C 118.702 129.207,118.666 140.283,119.171 143.233 C 119.375 144.425,119.755 146.660,120.015 148.200 C 121.970 159.761,127.859 172.783,134.395 180.000 L 135.663 181.400 134.751 180.000 C 134.249 179.230,133.725 178.510,133.586 178.400 C 131.724 176.928,125.431 165.333,123.600 160.000 C 123.336 159.230,122.982 158.240,122.815 157.800 C 122.042 155.766,121.600 154.056,121.600 153.095 C 121.600 152.519,121.443 151.950,121.252 151.832 C 120.918 151.626,120.784 150.858,119.990 144.600 C 118.358 131.722,119.687 121.164,124.464 109.072 C 126.237 104.585,131.576 94.899,132.772 94.000 C 132.919 93.890,133.475 93.170,134.008 92.400 C 137.694 87.076,146.825 78.682,153.800 74.205 C 157.127 72.070,162.798 68.800,163.175 68.800 C 163.347 68.800,164.638 68.236,166.044 67.547 C 167.450 66.858,169.005 66.138,169.500 65.947 C 171.273 65.263,172.611 64.701,173.295 64.353 C 173.677 64.159,174.341 64.000,174.771 64.000 C 175.201 64.000,175.664 63.820,175.800 63.600 C 175.936 63.380,176.476 63.200,177.000 63.200 C 177.524 63.200,178.064 63.020,178.200 62.800 C 178.336 62.580,178.966 62.400,179.600 62.400 C 180.234 62.400,180.852 62.240,180.973 62.044 C 181.094 61.849,181.779 61.587,182.496 61.463 C 183.213 61.339,184.430 61.127,185.200 60.992 C 185.970 60.856,186.960 60.588,187.400 60.395 C 187.840 60.203,189.010 59.941,190.000 59.813 C 190.990 59.685,192.970 59.404,194.400 59.189 C 207.277 57.252,221.407 57.544,234.400 60.015 C 235.610 60.245,237.230 60.527,238.000 60.641 C 238.770 60.756,239.760 61.005,240.200 61.195 C 240.640 61.384,241.495 61.643,242.100 61.770 C 242.705 61.896,243.695 62.104,244.300 62.230 C 244.905 62.357,245.760 62.603,246.200 62.778 C 246.640 62.952,248.260 63.488,249.800 63.968 C 251.340 64.448,252.960 64.995,253.400 65.182 C 253.840 65.370,255.730 66.110,257.600 66.827 C 266.153 70.107,283.240 80.019,287.200 83.999 C 287.310 84.110,288.570 85.186,290.000 86.392 C 295.710 91.206,295.718 90.539,289.855 97.336 C 289.445 97.811,288.635 98.830,288.055 99.600 C 287.475 100.370,286.772 101.241,286.494 101.535 C 286.216 101.829,285.496 102.729,284.894 103.535 C 284.292 104.341,283.572 105.241,283.294 105.535 C 283.016 105.829,282.296 106.729,281.694 107.535 C 281.092 108.341,280.372 109.241,280.094 109.535 C 279.816 109.829,279.096 110.726,278.494 111.529 C 277.892 112.332,277.013 113.441,276.541 113.994 C 276.069 114.547,274.127 116.980,272.227 119.400 C 270.327 121.820,268.551 124.070,268.281 124.400 C 268.010 124.730,267.161 125.806,266.394 126.790 C 265.628 127.775,264.789 128.809,264.531 129.088 C 264.273 129.367,263.678 130.083,263.210 130.678 L 262.359 131.760 260.998 131.027 C 260.250 130.624,259.276 129.958,258.835 129.547 C 258.394 129.136,257.923 128.800,257.789 128.800 C 257.654 128.800,256.792 128.282,255.872 127.650 C 249.768 123.451,234.097 116.306,231.261 116.429 C 230.898 116.444,231.680 116.812,233.000 117.246 C 241.934 120.182,251.007 124.698,259.147 130.260 C 262.595 132.617,261.978 133.017,269.493 123.556 C 285.966 102.816,291.074 96.455,292.903 94.400 C 295.933 90.996,295.926 91.208,293.093 88.475 C 284.463 80.151,269.665 70.794,258.200 66.413 C 257.760 66.245,256.950 65.921,256.400 65.694 C 255.850 65.467,254.770 65.064,254.000 64.800 C 253.230 64.536,252.240 64.176,251.800 64.000 C 250.615 63.527,248.827 62.955,246.800 62.400 C 245.810 62.129,244.550 61.765,244.000 61.592 C 233.536 58.292,214.455 56.476,202.400 57.633 M204.878 114.340 C 204.371 114.483,207.961 114.600,212.856 114.600 C 217.750 114.600,221.225 114.486,220.577 114.347 C 219.020 114.013,206.058 114.007,204.878 114.340 M200.400 115.200 C 199.642 115.690,200.870 115.690,202.400 115.200 C 203.380 114.886,203.376 114.879,202.200 114.846 C 201.540 114.827,200.730 114.987,200.400 115.200 M223.600 115.200 C 225.067 115.670,226.894 115.670,225.800 115.200 C 225.360 115.011,224.460 114.862,223.800 114.868 C 222.630 114.879,222.625 114.888,223.600 115.200 M194.934 117.202 C 190.662 119.286,185.286 125.020,186.482 126.215 C 186.598 126.331,186.927 125.835,187.213 125.113 C 188.575 121.679,192.956 118.015,197.356 116.631 C 198.590 116.243,199.600 115.852,199.600 115.763 C 199.600 115.247,197.802 115.802,194.934 117.202 M227.800 116.000 C 228.984 116.509,230.387 116.509,229.600 116.000 C 229.270 115.787,228.550 115.622,228.000 115.634 C 227.084 115.654,227.067 115.685,227.800 116.000 M185.867 127.067 C 185.404 127.529,185.578 134.311,186.083 135.481 C 187.567 138.923,190.036 141.643,194.032 144.240 C 196.539 145.869,204.063 149.600,204.842 149.600 C 205.045 149.600,205.523 149.765,205.905 149.967 C 207.345 150.729,210.407 152.000,210.801 152.000 C 211.026 152.000,211.523 152.159,211.905 152.353 C 212.287 152.548,213.050 152.884,213.600 153.100 C 215.120 153.697,216.493 154.249,217.600 154.706 C 218.150 154.933,219.230 155.336,220.000 155.600 C 220.770 155.864,221.850 156.267,222.400 156.494 C 223.683 157.024,225.161 157.615,226.300 158.054 C 226.795 158.244,227.605 158.556,228.100 158.746 C 228.595 158.937,229.540 159.321,230.200 159.600 C 230.860 159.879,231.760 160.239,232.200 160.400 C 232.640 160.561,233.450 160.883,234.000 161.114 C 234.550 161.346,240.130 163.551,246.400 166.014 C 264.838 173.256,271.015 176.649,279.963 184.447 C 297.934 200.109,305.370 224.508,300.422 251.578 C 300.203 252.776,300.099 253.833,300.192 253.926 C 300.285 254.018,300.444 253.668,300.546 253.147 C 301.956 245.909,302.402 241.922,302.397 236.600 C 302.368 203.682,285.305 179.898,253.200 168.023 C 252.430 167.738,251.037 167.167,250.104 166.753 C 249.172 166.339,248.224 166.000,247.999 166.000 C 247.774 166.000,247.277 165.841,246.895 165.647 C 246.208 165.297,244.849 164.727,243.100 164.054 C 241.885 163.586,240.409 162.994,239.200 162.490 C 238.650 162.261,234.870 160.780,230.800 159.200 C 226.730 157.620,223.040 156.177,222.600 155.994 C 222.160 155.812,217.750 154.089,212.800 152.167 C 191.037 143.716,185.648 139.318,186.076 130.358 C 186.170 128.401,186.221 126.800,186.190 126.800 C 186.159 126.800,186.013 126.920,185.867 127.067 M140.013 186.115 C 145.052 191.013,149.490 194.497,155.020 197.892 C 159.240 200.483,167.550 204.583,167.892 204.242 C 168.023 204.111,167.599 203.819,166.951 203.593 C 159.483 200.989,147.213 192.734,139.636 185.214 C 137.633 183.226,135.860 181.607,135.697 181.615 C 135.534 181.623,137.476 183.648,140.013 186.115 M168.443 204.577 C 168.864 204.997,175.334 207.600,175.513 207.421 C 175.622 207.312,175.194 207.026,174.561 206.785 C 173.042 206.208,170.771 205.223,169.905 204.766 C 169.200 204.394,168.121 204.254,168.443 204.577 M178.220 208.736 C 178.812 209.259,184.911 211.623,185.122 211.411 C 185.226 211.307,184.881 211.058,184.355 210.857 C 183.830 210.656,182.244 210.021,180.831 209.446 C 178.093 208.331,177.615 208.201,178.220 208.736 M185.800 212.000 C 185.936 212.220,186.317 212.400,186.647 212.400 C 186.977 212.400,187.136 212.220,187.000 212.000 C 186.864 211.780,186.483 211.600,186.153 211.600 C 185.823 211.600,185.664 211.780,185.800 212.000 M187.820 212.740 C 188.029 212.927,189.010 213.392,190.000 213.773 C 190.990 214.154,192.385 214.721,193.100 215.033 C 193.815 215.345,194.985 215.855,195.700 216.166 C 196.415 216.478,201.543 218.546,207.095 220.763 C 212.647 222.980,218.062 225.214,219.127 225.728 C 221.510 226.877,222.400 227.225,222.400 227.008 C 222.400 226.776,216.720 224.124,213.300 222.759 C 212.805 222.562,211.950 222.220,211.400 222.000 C 210.850 221.780,209.995 221.444,209.500 221.254 C 208.116 220.721,206.718 220.157,205.400 219.600 C 204.740 219.321,203.840 218.952,203.400 218.781 C 202.640 218.484,200.972 217.798,191.853 214.031 C 187.798 212.355,187.162 212.152,187.820 212.740 M224.767 228.513 C 228.199 230.551,230.831 232.834,232.350 235.091 C 233.950 237.470,234.564 237.676,233.085 235.338 C 231.293 232.504,228.860 230.393,224.686 228.048 C 222.299 226.708,222.366 227.088,224.767 228.513 M146.300 236.882 C 145.961 237.387,145.350 238.160,144.942 238.600 C 144.534 239.040,143.392 240.390,142.405 241.600 C 141.419 242.810,140.513 243.890,140.394 244.000 C 140.274 244.110,137.055 247.980,133.239 252.600 C 129.424 257.220,125.920 261.452,125.451 262.004 C 124.983 262.556,123.790 263.996,122.800 265.204 C 121.810 266.412,120.595 267.848,120.100 268.396 C 119.605 268.944,119.200 269.518,119.200 269.673 C 119.200 269.828,118.104 271.225,116.764 272.777 C 115.425 274.330,114.459 275.600,114.618 275.600 C 114.924 275.600,115.697 274.768,117.740 272.240 C 118.433 271.382,119.469 270.122,120.043 269.440 C 120.616 268.758,123.818 264.870,127.158 260.800 C 130.498 256.730,133.719 252.853,134.316 252.184 C 134.912 251.515,135.892 250.315,136.494 249.518 C 137.096 248.721,137.816 247.829,138.096 247.535 C 138.375 247.241,139.410 246.010,140.396 244.800 C 141.382 243.590,142.281 242.510,142.395 242.400 C 142.508 242.290,143.577 241.030,144.770 239.600 C 145.964 238.170,147.071 236.847,147.230 236.661 C 147.389 236.474,148.032 236.778,148.659 237.336 C 149.287 237.893,150.530 238.856,151.422 239.475 C 156.641 243.095,160.400 245.600,160.613 245.600 C 160.746 245.600,161.608 246.102,162.528 246.716 C 163.448 247.329,165.100 248.272,166.200 248.810 C 167.300 249.349,168.290 249.882,168.400 249.995 C 168.863 250.470,170.434 251.200,170.995 251.200 C 171.328 251.200,171.600 251.380,171.600 251.600 C 171.600 251.820,171.830 252.000,172.110 252.000 C 172.391 252.000,173.696 252.534,175.010 253.187 C 176.325 253.841,177.627 254.381,177.905 254.387 C 178.183 254.394,178.723 254.559,179.105 254.753 C 180.852 255.642,184.371 256.916,187.000 257.613 C 187.660 257.788,189.190 258.192,190.400 258.512 C 209.163 263.466,228.646 259.620,233.200 250.063 C 233.688 249.039,234.248 247.887,234.444 247.505 C 234.640 247.123,234.782 246.223,234.760 245.505 L 234.720 244.200 234.362 245.721 C 233.171 250.780,229.922 254.533,224.606 256.990 C 223.005 257.730,222.387 257.912,217.600 259.060 C 214.345 259.840,199.549 260.029,196.800 259.326 C 195.810 259.072,193.920 258.651,192.600 258.390 C 191.280 258.128,189.750 257.775,189.200 257.604 C 188.650 257.433,187.390 257.071,186.400 256.801 C 185.410 256.530,184.240 256.158,183.800 255.975 C 183.360 255.791,182.100 255.348,181.000 254.991 C 173.779 252.648,160.537 245.394,151.806 239.000 C 147.374 235.754,147.122 235.657,146.300 236.882 M234.238 239.000 C 234.570 240.984,234.802 241.304,234.794 239.767 C 234.791 239.125,234.604 238.330,234.379 238.000 C 234.086 237.570,234.046 237.854,234.238 239.000 M299.622 255.000 C 299.599 255.440,298.955 257.690,298.191 260.000 C 297.427 262.310,296.806 264.290,296.813 264.400 C 296.840 264.871,297.559 263.225,298.297 261.000 C 299.797 256.478,300.097 255.292,299.880 254.746 C 299.742 254.398,299.648 254.490,299.622 255.000 M295.818 266.218 C 295.472 267.046,295.271 267.805,295.371 267.905 C 295.471 268.005,295.836 267.409,296.182 266.582 C 296.528 265.754,296.729 264.995,296.629 264.895 C 296.529 264.795,296.164 265.391,295.818 266.218 M292.240 273.440 C 291.662 274.475,291.260 275.394,291.348 275.482 C 291.436 275.570,291.982 274.795,292.560 273.760 C 293.138 272.725,293.540 271.806,293.452 271.718 C 293.364 271.630,292.818 272.405,292.240 273.440 M112.035 278.435 C 109.906 280.983,109.830 281.131,110.306 281.835 C 111.292 283.293,126.244 294.258,129.600 295.984 C 131.380 296.899,129.898 295.770,125.400 292.784 C 120.385 289.454,113.716 284.485,111.662 282.548 C 110.162 281.132,110.156 281.174,112.135 279.005 C 113.164 277.876,114.493 276.000,114.262 276.000 C 114.156 276.000,113.154 277.096,112.035 278.435 M288.469 279.239 C 287.710 280.454,288.166 280.616,288.955 279.412 C 289.320 278.856,289.478 278.400,289.305 278.400 C 289.133 278.400,288.757 278.778,288.469 279.239 M286.583 281.891 C 286.152 282.473,285.354 283.500,284.810 284.174 C 283.328 286.009,276.847 292.405,274.853 294.002 C 273.892 294.771,272.902 295.586,272.653 295.813 C 272.404 296.040,271.570 296.666,270.800 297.202 C 270.030 297.739,269.051 298.498,268.625 298.889 C 268.198 299.280,267.696 299.600,267.508 299.600 C 267.320 299.600,266.780 299.960,266.308 300.400 C 265.836 300.840,265.213 301.200,264.925 301.200 C 264.636 301.200,264.400 301.390,264.400 301.623 C 264.400 302.750,273.803 295.721,279.112 290.626 C 283.084 286.813,287.875 281.342,287.538 281.004 C 287.443 280.910,287.013 281.308,286.583 281.891 M132.000 297.393 C 132.000 297.500,132.945 298.059,134.100 298.636 C 136.425 299.799,136.269 299.357,133.888 298.038 C 132.328 297.174,132.000 297.062,132.000 297.393 M136.400 299.760 C 136.400 299.885,137.300 300.443,138.400 301.000 C 139.500 301.557,140.400 301.873,140.400 301.701 C 140.400 301.529,139.635 301.036,138.700 300.605 C 137.765 300.174,136.865 299.757,136.700 299.677 C 136.535 299.598,136.400 299.635,136.400 299.760 M262.600 302.549 C 262.160 302.807,261.380 303.254,260.866 303.542 C 260.352 303.829,260.010 304.143,260.105 304.238 C 260.289 304.422,264.000 302.448,264.000 302.166 C 264.000 301.897,263.456 302.046,262.600 302.549 M142.800 302.971 C 142.800 303.248,147.306 305.228,147.499 305.035 C 147.596 304.937,146.663 304.395,145.426 303.829 C 143.129 302.779,142.800 302.671,142.800 302.971 M149.558 306.037 C 150.525 306.466,151.400 306.734,151.502 306.632 C 151.724 306.410,148.894 305.188,148.251 305.228 C 148.003 305.244,148.591 305.608,149.558 306.037 M255.170 306.355 C 250.849 308.502,244.120 310.851,237.400 312.559 C 229.278 314.623,225.910 315.174,216.000 316.065 C 201.680 317.352,183.201 315.803,169.800 312.193 C 168.700 311.897,166.450 311.291,164.800 310.847 C 163.150 310.403,159.687 309.311,157.104 308.420 C 152.467 306.820,151.230 306.492,152.400 307.174 C 153.050 307.552,160.979 310.275,163.100 310.849 C 163.815 311.042,164.985 311.368,165.700 311.572 C 169.043 312.530,173.595 313.664,175.500 314.014 C 176.655 314.226,178.635 314.591,179.900 314.823 C 195.252 317.649,215.476 317.755,228.400 315.077 C 228.950 314.963,230.480 314.648,231.800 314.378 C 236.985 313.315,245.888 310.793,248.600 309.620 C 249.040 309.430,250.120 309.005,251.000 308.676 C 253.274 307.825,258.000 305.602,258.000 305.384 C 258.000 305.040,257.403 305.245,255.170 306.355 " stroke="none" fill="#b9cdd4" fill-rule="evenodd"></path><path id="path4" d="M207.947 57.771 C 207.808 57.919,205.288 58.210,202.347 58.419 C 199.406 58.627,195.830 58.974,194.400 59.189 C 192.970 59.404,190.990 59.685,190.000 59.813 C 189.010 59.941,187.840 60.203,187.400 60.395 C 186.960 60.588,185.970 60.856,185.200 60.992 C 184.430 61.127,183.213 61.339,182.496 61.463 C 181.779 61.587,181.094 61.849,180.973 62.044 C 180.852 62.240,180.234 62.400,179.600 62.400 C 178.966 62.400,178.336 62.580,178.200 62.800 C 178.064 63.020,177.524 63.200,177.000 63.200 C 176.476 63.200,175.936 63.380,175.800 63.600 C 175.664 63.820,175.201 64.000,174.771 64.000 C 174.341 64.000,173.677 64.159,173.295 64.353 C 172.512 64.751,170.602 65.559,169.400 66.001 C 168.960 66.162,167.450 66.858,166.044 67.547 C 164.638 68.236,163.347 68.800,163.175 68.800 C 162.798 68.800,157.127 72.070,153.800 74.205 C 146.825 78.682,137.694 87.076,134.008 92.400 C 133.475 93.170,132.919 93.890,132.772 94.000 C 131.576 94.899,126.237 104.585,124.464 109.072 C 119.687 121.164,118.358 131.722,119.990 144.600 C 120.784 150.858,120.918 151.626,121.252 151.832 C 121.443 151.950,121.600 152.519,121.600 153.095 C 121.600 154.056,122.042 155.766,122.815 157.800 C 122.982 158.240,123.336 159.230,123.600 160.000 C 125.431 165.333,131.724 176.928,133.586 178.400 C 133.725 178.510,134.275 179.230,134.809 180.000 C 140.489 188.191,156.394 199.464,169.800 204.800 C 171.074 205.307,174.444 206.744,177.700 208.169 C 178.415 208.482,179.990 209.126,181.200 209.600 C 182.410 210.074,183.985 210.718,184.700 211.031 C 187.648 212.321,188.810 212.808,193.200 214.597 C 195.730 215.627,198.880 216.925,200.200 217.480 C 201.520 218.035,202.960 218.625,203.400 218.791 C 203.840 218.957,204.695 219.297,205.300 219.546 C 205.905 219.796,206.805 220.156,207.300 220.346 C 207.795 220.537,208.695 220.897,209.300 221.146 C 210.325 221.569,210.999 221.841,213.300 222.759 C 229.714 229.311,234.800 234.047,234.800 242.780 C 234.800 244.997,234.640 247.123,234.444 247.505 C 234.248 247.887,233.688 249.039,233.200 250.063 C 228.646 259.620,209.163 263.466,190.400 258.512 C 189.190 258.192,187.660 257.788,187.000 257.613 C 184.371 256.916,180.852 255.642,179.105 254.753 C 178.723 254.559,178.183 254.394,177.905 254.387 C 177.627 254.381,176.325 253.841,175.010 253.187 C 173.696 252.534,172.391 252.000,172.110 252.000 C 171.830 252.000,171.600 251.820,171.600 251.600 C 171.600 251.380,171.328 251.200,170.995 251.200 C 170.434 251.200,168.863 250.470,168.400 249.995 C 168.290 249.882,167.300 249.349,166.200 248.810 C 165.100 248.272,163.448 247.329,162.528 246.716 C 161.608 246.102,160.746 245.600,160.613 245.600 C 160.400 245.600,156.641 243.095,151.422 239.475 C 150.530 238.856,149.287 237.893,148.659 237.336 C 148.032 236.778,147.389 236.474,147.230 236.661 C 147.071 236.847,145.964 238.170,144.770 239.600 C 143.577 241.030,142.508 242.290,142.395 242.400 C 142.281 242.510,141.382 243.590,140.396 244.800 C 139.410 246.010,138.375 247.241,138.096 247.535 C 137.816 247.829,137.096 248.721,136.494 249.518 C 135.892 250.315,134.912 251.515,134.316 252.184 C 133.719 252.853,130.498 256.730,127.158 260.800 C 123.818 264.870,120.616 268.758,120.043 269.440 C 119.469 270.122,118.370 271.463,117.600 272.419 C 116.830 273.376,115.840 274.529,115.400 274.982 C 114.960 275.435,114.108 276.464,113.506 277.268 C 112.904 278.073,112.184 278.972,111.906 279.267 C 110.198 281.077,110.191 281.160,111.662 282.548 C 114.786 285.495,130.132 296.400,131.155 296.400 C 131.363 296.400,131.593 296.535,131.667 296.700 C 131.797 296.994,132.983 297.662,137.800 300.157 C 139.120 300.841,140.260 301.535,140.333 301.700 C 140.407 301.865,140.688 302.000,140.958 302.000 C 141.451 302.000,143.658 302.957,146.538 304.419 C 147.384 304.849,148.241 305.200,148.442 305.200 C 148.644 305.200,149.572 305.551,150.504 305.980 C 152.752 307.014,161.040 309.835,164.800 310.847 C 166.450 311.291,168.700 311.897,169.800 312.193 C 185.555 316.437,203.660 317.519,223.200 315.383 C 230.291 314.608,242.354 311.570,249.600 308.735 C 254.465 306.832,263.551 302.451,264.400 301.599 C 264.510 301.489,265.095 301.144,265.700 300.832 C 266.305 300.520,266.800 300.115,266.800 299.932 C 266.800 299.750,267.036 299.600,267.325 299.600 C 267.613 299.600,268.198 299.280,268.625 298.889 C 269.051 298.498,270.030 297.739,270.800 297.202 C 271.570 296.666,272.404 296.040,272.653 295.813 C 272.902 295.586,273.892 294.773,274.853 294.007 C 277.255 292.091,283.962 285.350,285.406 283.400 C 286.058 282.520,286.908 281.509,287.296 281.153 C 287.683 280.797,288.000 280.347,288.001 280.153 C 288.001 279.959,288.541 279.170,289.200 278.400 C 289.859 277.630,290.399 276.775,290.399 276.500 C 290.400 276.225,290.535 275.999,290.700 275.997 C 290.865 275.995,291.197 275.590,291.438 275.097 C 291.679 274.604,292.701 272.580,293.710 270.600 C 300.301 257.666,302.996 243.610,301.589 229.514 C 299.409 207.664,292.293 194.156,276.108 181.143 C 270.004 176.234,261.854 172.084,246.400 166.014 C 240.130 163.551,234.595 161.370,234.100 161.168 C 233.605 160.966,232.705 160.596,232.100 160.346 C 231.495 160.097,230.595 159.737,230.100 159.546 C 229.605 159.356,228.750 159.020,228.200 158.800 C 227.650 158.580,226.795 158.244,226.300 158.054 C 225.805 157.863,224.860 157.479,224.200 157.200 C 222.647 156.544,221.719 156.190,220.000 155.600 C 219.230 155.336,218.150 154.933,217.600 154.706 C 217.050 154.479,216.240 154.161,215.800 154.000 C 214.606 153.563,212.692 152.753,211.905 152.353 C 211.523 152.159,211.026 152.000,210.801 152.000 C 210.407 152.000,207.345 150.729,205.905 149.967 C 205.523 149.765,205.045 149.600,204.842 149.600 C 204.063 149.600,196.539 145.869,194.032 144.240 C 190.036 141.643,187.567 138.923,186.083 135.481 C 185.523 134.184,185.431 127.919,185.956 126.895 C 186.152 126.513,186.735 125.316,187.252 124.236 C 194.470 109.148,231.665 110.999,255.872 127.650 C 256.792 128.282,257.654 128.800,257.789 128.800 C 257.923 128.800,258.394 129.136,258.835 129.547 C 259.276 129.958,260.250 130.624,260.998 131.027 L 262.359 131.760 263.210 130.678 C 263.678 130.083,264.273 129.367,264.531 129.088 C 264.789 128.809,265.628 127.775,266.394 126.790 C 267.161 125.806,268.010 124.730,268.281 124.400 C 268.551 124.070,270.327 121.820,272.227 119.400 C 274.127 116.980,276.069 114.547,276.541 113.994 C 277.013 113.441,277.892 112.332,278.494 111.529 C 279.096 110.726,279.816 109.829,280.094 109.535 C 280.372 109.241,281.092 108.341,281.694 107.535 C 282.296 106.729,283.016 105.829,283.294 105.535 C 283.572 105.241,284.292 104.341,284.894 103.535 C 285.496 102.729,286.216 101.829,286.494 101.535 C 286.772 101.241,287.475 100.370,288.055 99.600 C 288.635 98.830,289.445 97.811,289.855 97.336 C 295.718 90.539,295.710 91.206,290.000 86.392 C 288.570 85.186,287.310 84.110,287.200 83.999 C 283.240 80.019,266.153 70.107,257.600 66.827 C 255.730 66.110,253.840 65.370,253.400 65.182 C 252.960 64.995,251.340 64.448,249.800 63.968 C 248.260 63.488,246.640 62.952,246.200 62.778 C 245.760 62.603,244.860 62.348,244.200 62.211 C 243.540 62.074,242.550 61.867,242.000 61.751 C 241.450 61.635,240.640 61.384,240.200 61.195 C 239.760 61.005,238.770 60.756,238.000 60.641 C 237.230 60.527,235.610 60.246,234.400 60.017 C 226.873 58.594,208.632 57.045,207.947 57.771 " stroke="none" fill="#ecf0f2" fill-rule="evenodd"></path></g></svg>