<?xml version="1.0" standalone="no"?>
<!DOCTYPE svg PUBLIC "-//W3C//DTD SVG 20010904//EN"
 "http://www.w3.org/TR/2001/REC-SVG-20010904/DTD/svg10.dtd">
<svg version="1.0" xmlns="http://www.w3.org/2000/svg"
 width="514.000000pt" height="597.000000pt" viewBox="0 0 514.000000 597.000000"
 preserveAspectRatio="xMidYMid meet">
<metadata>
Created by potrace 1.15, written by Peter Selinger 2001-2017
</metadata>
<g transform="translate(0.000000,597.000000) scale(0.100000,-0.100000)"
fill="#000000" stroke="none">
<path d="M0 3722 c0 -2129 1 -2250 18 -2264 9 -9 579 -340 1265 -737 1237
-715 1248 -721 1302 -721 54 0 66 6 589 309 1148 666 1934 1131 1943 1151 13
28 21 1042 22 2788 l1 1722 -2570 0 -2570 0 0 -2248z m5110 2198 c0 -11 -278
-651 -617 -1422 l-617 -1403 -7 -160 c-4 -100 -13 -186 -24 -230 -94 -367
-388 -641 -800 -745 -161 -41 -292 -54 -485 -47 -387 14 -738 140 -1049 376
-44 34 -82 65 -85 70 -3 4 22 41 55 80 l61 72 -756 1697 c-416 933 -756 1705
-756 1715 0 16 128 17 2540 17 2533 0 2540 0 2540 -20z m-3041 -4034 c216 -68
307 -81 566 -81 199 1 244 4 332 23 121 26 252 71 347 119 37 19 69 33 71 31
4 -4 -789 -1808 -795 -1808 -4 0 -792 1761 -815 1822 -5 13 15 7 87 -26 51
-24 144 -60 207 -80z"/>
<path d="M3551 4490 c-100 -126 -186 -230 -191 -230 -4 0 -32 16 -61 36 -79
53 -212 118 -309 150 -79 26 -97 28 -250 29 -153 0 -169 -2 -218 -24 -89 -40
-143 -127 -127 -202 l7 -30 17 33 c46 86 161 123 351 115 186 -8 336 -58 509
-171 40 -25 76 -46 81 -46 11 0 408 493 417 517 5 13 -23 53 -37 53 -4 0 -89
-103 -189 -230z"/>
<path d="M1544 4015 c3 -44 12 -109 22 -145 20 -78 80 -210 124 -275 49 -71
145 -169 218 -224 121 -88 200 -126 707 -332 250 -102 316 -138 356 -192 l28
-39 7 27 c4 15 1 44 -5 66 -26 87 -95 133 -356 237 -308 124 -555 231 -623
271 -250 146 -407 354 -466 617 l-16 69 4 -80z"/>
</g>
</svg>
