<svg xmlns="http://www.w3.org/2000/svg" viewBox="0 0 6100 50" width="6100" height="50"><path d="M16.041 41.12c8.125 14.216 28.169 8.979 27.789-7.59 0-1.874.036-2.969.071-6.08-.083-3.545-.727-5.345-2.775-5.82-2.612-.606-3.985.933-4.298 4.154-.159-1.497 1.083-6.386-2.772-7.754-3.852-.462-3.487 2.83-4.23 5.843-.103-.906.192-2.685-.222-5.137-1.247-3.453-5.436-3.364-6.236.567l-.409 6.44V7.43c-1.144-4.83-6.663-3.829-7.166-.398l.398 18.711C12.583 20.038.715 15.522 7.434 27.339l5.883 9.593zm10.307-28.793c3.23-15.889-17.841-15.145-13.37-.131" fill="none" stroke="#000000" stroke-dasharray="0,182.0033955855338" stroke-dashoffset="182.003396"/><path d="M116.041 41.12c8.125 14.216 28.169 8.979 27.789-7.59 0-1.874.036-2.969.071-6.08-.083-3.545-.727-5.345-2.775-5.82-2.612-.606-3.985.933-4.298 4.154-.159-1.497 1.083-6.386-2.772-7.754-3.852-.462-3.487 2.83-4.23 5.843-.103-.906.192-2.685-.222-5.137-1.247-3.453-5.436-3.364-6.236.567l-.409 6.44V7.43c-1.144-4.83-6.663-3.829-7.166-.398l.398 18.711c-3.608-5.705-15.476-10.221-8.757 1.596l5.883 9.593zm10.307-28.793c3.23-15.889-17.841-15.145-13.37-.131" fill="none" stroke="#000000" stroke-dasharray="1.5752415819481735,180.42815400358563" stroke-dashoffset="1.575242"/><path d="M216.041 41.12c8.125 14.216 28.169 8.979 27.789-7.59 0-1.874.036-2.969.071-6.08-.083-3.545-.727-5.345-2.775-5.82-2.612-.606-3.985.933-4.298 4.154-.159-1.497 1.083-6.386-2.772-7.754-3.852-.462-3.487 2.83-4.23 5.843-.103-.906.192-2.685-.222-5.137-1.247-3.453-5.436-3.364-6.236.567l-.409 6.44V7.43c-1.144-4.83-6.663-3.829-7.166-.398l.398 18.711c-3.608-5.705-15.476-10.221-8.757 1.596l5.883 9.593zm10.307-28.793c3.23-15.889-17.841-15.145-13.37-.131" fill="none" stroke="#000000" stroke-dasharray="6.2464313882985625,175.75696419723525" stroke-dashoffset="6.246431"/><path d="M316.041 41.12c8.125 14.216 28.169 8.979 27.789-7.59 0-1.874.036-2.969.071-6.08-.083-3.545-.727-5.345-2.775-5.82-2.612-.606-3.985.933-4.298 4.154-.159-1.497 1.083-6.386-2.772-7.754-3.852-.462-3.487 2.83-4.23 5.843-.103-.906.192-2.685-.222-5.137-1.247-3.453-5.436-3.364-6.236.567l-.409 6.44V7.43c-1.144-4.83-6.663-3.829-7.166-.398l.398 18.711c-3.608-5.705-15.476-10.221-8.757 1.596l5.883 9.593zm10.307-28.793c3.23-15.889-17.841-15.145-13.37-.131" fill="none" stroke="#000000" stroke-dasharray="13.851852602802452,168.15154298273137" stroke-dashoffset="13.851853"/><path d="M416.041 41.12c8.125 14.216 28.169 8.979 27.789-7.59 0-1.874.036-2.969.071-6.08-.083-3.545-.727-5.345-2.775-5.82-2.612-.606-3.985.933-4.298 4.154-.159-1.497 1.083-6.386-2.772-7.754-3.852-.462-3.487 2.83-4.23 5.843-.103-.906.192-2.685-.222-5.137-1.247-3.453-5.436-3.364-6.236.567l-.409 6.44V7.43c-1.144-4.83-6.663-3.829-7.166-.398l.398 18.711c-3.608-5.705-15.476-10.221-8.757 1.596l5.883 9.593zm10.307-28.793c3.23-15.889-17.841-15.145-13.37-.131" fill="none" stroke="#000000" stroke-dasharray="24.128205176430004,157.8751904091038" stroke-dashoffset="24.128205"/><path d="M516.041 41.12c8.125 14.216 28.169 8.979 27.789-7.59 0-1.874.036-2.969.071-6.08-.083-3.545-.727-5.345-2.775-5.82-2.612-.606-3.985.933-4.298 4.154-.159-1.497 1.083-6.386-2.772-7.754-3.852-.462-3.487 2.83-4.23 5.843-.103-.906.192-2.685-.222-5.137-1.247-3.453-5.436-3.364-6.236.567l-.409 6.44V7.43c-1.144-4.83-6.663-3.829-7.166-.398l.398 18.711c-3.608-5.705-15.476-10.221-8.757 1.596l5.883 9.593zm10.307-28.793c3.23-15.889-17.841-15.145-13.37-.131" fill="none" stroke="#000000" stroke-dasharray="36.71972128775874,145.28367429777506" stroke-dashoffset="36.719721"/><path d="M616.041 41.12c8.125 14.216 28.169 8.979 27.789-7.59 0-1.874.036-2.969.071-6.08-.083-3.545-.727-5.345-2.775-5.82-2.612-.606-3.985.933-4.298 4.154-.159-1.497 1.083-6.386-2.772-7.754-3.852-.462-3.487 2.83-4.23 5.843-.103-.906.192-2.685-.222-5.137-1.247-3.453-5.436-3.364-6.236.567l-.409 6.44V7.43c-1.144-4.83-6.663-3.829-7.166-.398l.398 18.711c-3.608-5.705-15.476-10.221-8.757 1.596l5.883 9.593zm10.307-28.793c3.23-15.889-17.841-15.145-13.37-.131" fill="none" stroke="#000000" stroke-dasharray="51.190482042099354,130.81291354343446" stroke-dashoffset="51.190482"/><path d="M716.041 41.12c8.125 14.216 28.169 8.979 27.789-7.59 0-1.874.036-2.969.071-6.08-.083-3.545-.727-5.345-2.775-5.82-2.612-.606-3.985.933-4.298 4.154-.159-1.497 1.083-6.386-2.772-7.754-3.852-.462-3.487 2.83-4.23 5.843-.103-.906.192-2.685-.222-5.137-1.247-3.453-5.436-3.364-6.236.567l-.409 6.44V7.43c-1.144-4.83-6.663-3.829-7.166-.398l.398 18.711c-3.608-5.705-15.476-10.221-8.757 1.596l5.883 9.593zm10.307-28.793c3.23-15.889-17.841-15.145-13.37-.131" fill="none" stroke="#000000" stroke-dasharray="67.03950900464143,114.96388658089238" stroke-dashoffset="67.039509"/><path d="M816.041 41.12c8.125 14.216 28.169 8.979 27.789-7.59 0-1.874.036-2.969.071-6.08-.083-3.545-.727-5.345-2.775-5.82-2.612-.606-3.985.933-4.298 4.154-.159-1.497 1.083-6.386-2.772-7.754-3.852-.462-3.487 2.83-4.23 5.843-.103-.906.192-2.685-.222-5.137-1.247-3.453-5.436-3.364-6.236.567l-.409 6.44V7.43c-1.144-4.83-6.663-3.829-7.166-.398l.398 18.711c-3.608-5.705-15.476-10.221-8.757 1.596l5.883 9.593zm10.307-28.793c3.23-15.889-17.841-15.145-13.37-.131" fill="none" stroke="#000000" stroke-dasharray="83.71810809801354,98.28528748752026" stroke-dashoffset="83.718108"/><path d="M916.041 41.12c8.125 14.216 28.169 8.979 27.789-7.59 0-1.874.036-2.969.071-6.08-.083-3.545-.727-5.345-2.775-5.82-2.612-.606-3.985.933-4.298 4.154-.159-1.497 1.083-6.386-2.772-7.754-3.852-.462-3.487 2.83-4.23 5.843-.103-.906.192-2.685-.222-5.137-1.247-3.453-5.436-3.364-6.236.567l-.409 6.44V7.43c-1.144-4.83-6.663-3.829-7.166-.398l.398 18.711c-3.608-5.705-15.476-10.221-8.757 1.596l5.883 9.593zm10.307-28.793c3.23-15.889-17.841-15.145-13.37-.131" fill="none" stroke="#000000" stroke-dasharray="100.64886541768927,81.35453016784454" stroke-dashoffset="100.648865"/><path d="M1016.041 41.12c8.125 14.216 28.169 8.979 27.789-7.59 0-1.874.036-2.969.071-6.08-.083-3.545-.727-5.345-2.775-5.82-2.612-.606-3.985.933-4.298 4.154-.159-1.497 1.083-6.386-2.772-7.754-3.852-.462-3.487 2.83-4.23 5.843-.103-.906.192-2.685-.222-5.137-1.247-3.453-5.436-3.364-6.236.567l-.409 6.44V7.43c-1.144-4.83-6.663-3.829-7.166-.398l.398 18.711c-3.608-5.705-15.476-10.221-8.757 1.596l5.883 9.593zm10.307-28.793c3.23-15.889-17.841-15.145-13.37-.131" fill="none" stroke="#000000" stroke-dasharray="117.24563732919363,64.75775825634018" stroke-dashoffset="117.245637"/><path d="M1116.041 41.12c8.125 14.216 28.169 8.979 27.789-7.59 0-1.874.036-2.969.071-6.08-.083-3.545-.727-5.345-2.775-5.82-2.612-.606-3.985.933-4.298 4.154-.159-1.497 1.083-6.386-2.772-7.754-3.852-.462-3.487 2.83-4.23 5.843-.103-.906.192-2.685-.222-5.137-1.247-3.453-5.436-3.364-6.236.567l-.409 6.44V7.43c-1.144-4.83-6.663-3.829-7.166-.398l.398 18.711c-3.608-5.705-15.476-10.221-8.757 1.596l5.883 9.593zm10.307-28.793c3.23-15.889-17.841-15.145-13.37-.131" fill="none" stroke="#000000" stroke-dasharray="132.93384278898074,49.06955279655307" stroke-dashoffset="132.933843"/><path d="M1216.041 41.12c8.125 14.216 28.169 8.979 27.789-7.59 0-1.874.036-2.969.071-6.08-.083-3.545-.727-5.345-2.775-5.82-2.612-.606-3.985.933-4.298 4.154-.159-1.497 1.083-6.386-2.772-7.754-3.852-.462-3.487 2.83-4.23 5.843-.103-.906.192-2.685-.222-5.137-1.247-3.453-5.436-3.364-6.236.567l-.409 6.44V7.43c-1.144-4.83-6.663-3.829-7.166-.398l.398 18.711c-3.608-5.705-15.476-10.221-8.757 1.596l5.883 9.593zm10.307-28.793c3.23-15.889-17.841-15.145-13.37-.131" fill="none" stroke="#000000" stroke-dasharray="147.17035536785622,34.8330402176776" stroke-dashoffset="147.170355"/><path d="M1316.041 41.12c8.125 14.216 28.169 8.979 27.789-7.59 0-1.874.036-2.969.071-6.08-.083-3.545-.727-5.345-2.775-5.82-2.612-.606-3.985.933-4.298 4.154-.159-1.497 1.083-6.386-2.772-7.754-3.852-.462-3.487 2.83-4.23 5.843-.103-.906.192-2.685-.222-5.137-1.247-3.453-5.436-3.364-6.236.567l-.409 6.44V7.43c-1.144-4.83-6.663-3.829-7.166-.398l.398 18.711c-3.608-5.705-15.476-10.221-8.757 1.596l5.883 9.593zm10.307-28.793c3.23-15.889-17.841-15.145-13.37-.131" fill="none" stroke="#000000" stroke-dasharray="159.46230631413482,22.541089271398985" stroke-dashoffset="159.462306"/><path d="M1416.041 41.12c8.125 14.216 28.169 8.979 27.789-7.59 0-1.874.036-2.969.071-6.08-.083-3.545-.727-5.345-2.775-5.82-2.612-.606-3.985.933-4.298 4.154-.159-1.497 1.083-6.386-2.772-7.754-3.852-.462-3.487 2.83-4.23 5.843-.103-.906.192-2.685-.222-5.137-1.247-3.453-5.436-3.364-6.236.567l-.409 6.44V7.43c-1.144-4.83-6.663-3.829-7.166-.398l.398 18.711c-3.608-5.705-15.476-10.221-8.757 1.596l5.883 9.593zm10.307-28.793c3.23-15.889-17.841-15.145-13.37-.131" fill="none" stroke="#000000" stroke-dasharray="169.38414769358067,12.61924789195315" stroke-dashoffset="169.384148"/><path d="M1516.041 41.12c8.125 14.216 28.169 8.979 27.789-7.59 0-1.874.036-2.969.071-6.08-.083-3.545-.727-5.345-2.775-5.82-2.612-.606-3.985.933-4.298 4.154-.159-1.497 1.083-6.386-2.772-7.754-3.852-.462-3.487 2.83-4.23 5.843-.103-.906.192-2.685-.222-5.137-1.247-3.453-5.436-3.364-6.236.567l-.409 6.44V7.43c-1.144-4.83-6.663-3.829-7.166-.398l.398 18.711c-3.608-5.705-15.476-10.221-8.757 1.596l5.883 9.593zm10.307-28.793c3.23-15.889-17.841-15.145-13.37-.131" fill="none" stroke="#000000" stroke-dasharray="176.59238487940127,5.411010706132555" stroke-dashoffset="176.592385"/><path d="M1616.041 41.12c8.125 14.216 28.169 8.979 27.789-7.59 0-1.874.036-2.969.071-6.08-.083-3.545-.727-5.345-2.775-5.82-2.612-.606-3.985.933-4.298 4.154-.159-1.497 1.083-6.386-2.772-7.754-3.852-.462-3.487 2.83-4.23 5.843-.103-.906.192-2.685-.222-5.137-1.247-3.453-5.436-3.364-6.236.567l-.409 6.44V7.43c-1.144-4.83-6.663-3.829-7.166-.398l.398 18.711c-3.608-5.705-15.476-10.221-8.757 1.596l5.883 9.593zm10.307-28.793c3.23-15.889-17.841-15.145-13.37-.131" fill="none" stroke="#000000" stroke-dasharray="180.8374683527842,1.1659272327496017" stroke-dashoffset="180.837468"/><path d="M1716.041 41.12c8.125 14.216 28.169 8.979 27.789-7.59 0-1.874.036-2.969.071-6.08-.083-3.545-.727-5.345-2.775-5.82-2.612-.606-3.985.933-4.298 4.154-.159-1.497 1.083-6.386-2.772-7.754-3.852-.462-3.487 2.83-4.23 5.843-.103-.906.192-2.685-.222-5.137-1.247-3.453-5.436-3.364-6.236.567l-.409 6.44V7.43c-1.144-4.83-6.663-3.829-7.166-.398l.398 18.711c-3.608-5.705-15.476-10.221-8.757 1.596l5.883 9.593zm10.307-28.793c3.23-15.889-17.841-15.145-13.37-.131M1816.041 41.12c8.125 14.216 28.169 8.979 27.789-7.59 0-1.874.036-2.969.071-6.08-.083-3.545-.727-5.345-2.775-5.82-2.612-.606-3.985.933-4.298 4.154-.159-1.497 1.083-6.386-2.772-7.754-3.852-.462-3.487 2.83-4.23 5.843-.103-.906.192-2.685-.222-5.137-1.247-3.453-5.436-3.364-6.236.567l-.409 6.44V7.43c-1.144-4.83-6.663-3.829-7.166-.398l.398 18.711c-3.608-5.705-15.476-10.221-8.757 1.596l5.883 9.593zm10.307-28.793c3.23-15.889-17.841-15.145-13.37-.131M1916.041 41.12c8.125 14.216 28.169 8.979 27.789-7.59 0-1.874.036-2.969.071-6.08-.083-3.545-.727-5.345-2.775-5.82-2.612-.606-3.985.933-4.298 4.154-.159-1.497 1.083-6.386-2.772-7.754-3.852-.462-3.487 2.83-4.23 5.843-.103-.906.192-2.685-.222-5.137-1.247-3.453-5.436-3.364-6.236.567l-.409 6.44V7.43c-1.144-4.83-6.663-3.829-7.166-.398l.398 18.711c-3.608-5.705-15.476-10.221-8.757 1.596l5.883 9.593zm10.307-28.793c3.23-15.889-17.841-15.145-13.37-.131M2016.059773 41.12c8.125 14.216 28.169 8.979 27.789-7.59 0-1.874.036-2.969.071-6.08-.083-3.545-.727-5.345-2.775-5.82-2.612-.606-3.985.933-4.298 4.154-.159-1.497 1.083-6.386-2.772-7.754-3.852-.462-3.487 2.83-4.23 5.843-.103-.906.192-2.685-.222-5.137-1.247-3.453-5.436-3.364-6.236.567l-.409 6.44V7.43c-1.144-4.83-6.663-3.829-7.166-.398l.398 18.711c-3.608-5.705-15.476-10.221-8.757 1.596l5.883 9.593zm10.307-28.793c3.23-15.889-17.841-15.145-13.37-.131M2116.194242 41.12c8.125 14.216 28.169 8.979 27.789-7.59 0-1.874.036-2.969.071-6.08-.083-3.545-.727-5.345-2.775-5.82-2.612-.606-3.985.933-4.298 4.154-.159-1.497 1.083-6.386-2.772-7.754-3.852-.462-3.487 2.83-4.23 5.843-.103-.906.192-2.685-.222-5.137-1.247-3.453-5.436-3.364-6.236.567l-.409 6.44V7.43c-1.144-4.83-6.663-3.829-7.166-.398l.398 18.711c-3.608-5.705-15.476-10.221-8.757 1.596l5.883 9.593zm10.307-28.793c3.23-15.889-17.841-15.145-13.37-.131M2216.476273 41.12c8.125 14.216 28.169 8.979 27.789-7.59 0-1.874.036-2.969.071-6.08-.083-3.545-.727-5.345-2.775-5.82-2.612-.606-3.985.933-4.298 4.154-.159-1.497 1.083-6.386-2.772-7.754-3.852-.462-3.487 2.83-4.23 5.843-.103-.906.192-2.685-.222-5.137-1.247-3.453-5.436-3.364-6.236.567l-.409 6.44V7.43c-1.144-4.83-6.663-3.829-7.166-.398l.398 18.711c-3.608-5.705-15.476-10.221-8.757 1.596l5.883 9.593zm10.307-28.793c3.23-15.889-17.841-15.145-13.37-.131M2316.931375 41.12c8.125 14.216 28.169 8.979 27.789-7.59 0-1.874.036-2.969.071-6.08-.083-3.545-.727-5.345-2.775-5.82-2.612-.606-3.985.933-4.298 4.154-.159-1.497 1.083-6.386-2.772-7.754-3.852-.462-3.487 2.83-4.23 5.843-.103-.906.192-2.685-.222-5.137-1.247-3.453-5.436-3.364-6.236.567l-.409 6.44V7.43c-1.144-4.83-6.663-3.829-7.166-.398l.398 18.711c-3.608-5.705-15.476-10.221-8.757 1.596l5.883 9.593zm10.307-28.793c3.23-15.889-17.841-15.145-13.37-.131M2417.590745 41.12c8.125 14.216 28.169 8.979 27.789-7.59 0-1.874.036-2.969.071-6.08-.083-3.545-.727-5.345-2.775-5.82-2.612-.606-3.985.933-4.298 4.154-.159-1.497 1.083-6.386-2.772-7.754-3.852-.462-3.487 2.83-4.23 5.843-.103-.906.192-2.685-.222-5.137-1.247-3.453-5.436-3.364-6.236.567l-.409 6.44V7.43c-1.144-4.83-6.663-3.829-7.166-.398l.398 18.711c-3.608-5.705-15.476-10.221-8.757 1.596l5.883 9.593zm10.307-28.793c3.23-15.889-17.841-15.145-13.37-.131M2518.49211 41.12c8.125 14.216 28.169 8.979 27.789-7.59 0-1.874.036-2.969.071-6.08-.083-3.545-.727-5.345-2.775-5.82-2.612-.606-3.985.933-4.298 4.154-.159-1.497 1.083-6.386-2.772-7.754-3.852-.462-3.487 2.83-4.23 5.843-.103-.906.192-2.685-.222-5.137-1.247-3.453-5.436-3.364-6.236.567l-.409 6.44V7.43c-1.144-4.83-6.663-3.829-7.166-.398l.398 18.711c-3.608-5.705-15.476-10.221-8.757 1.596l5.883 9.593zm10.307-28.793c3.23-15.889-17.841-15.145-13.37-.131M2619.67973 41.12c8.125 14.216 28.169 8.979 27.789-7.59 0-1.874.036-2.969.071-6.08-.083-3.545-.727-5.345-2.775-5.82-2.612-.606-3.985.933-4.298 4.154-.159-1.497 1.083-6.386-2.772-7.754-3.852-.462-3.487 2.83-4.23 5.843-.103-.906.192-2.685-.222-5.137-1.247-3.453-5.436-3.364-6.236.567l-.409 6.44V7.43c-1.144-4.83-6.663-3.829-7.166-.398l.398 18.711c-3.608-5.705-15.476-10.221-8.757 1.596l5.883 9.593zm10.307-28.793c3.23-15.889-17.841-15.145-13.37-.131M2721.202012 41.12c8.125 14.216 28.169 8.979 27.789-7.59 0-1.874.036-2.969.071-6.08-.083-3.545-.727-5.345-2.775-5.82-2.612-.606-3.985.933-4.298 4.154-.159-1.497 1.083-6.386-2.772-7.754-3.852-.462-3.487 2.83-4.23 5.843-.103-.906.192-2.685-.222-5.137-1.247-3.453-5.436-3.364-6.236.567l-.409 6.44V7.43c-1.144-4.83-6.663-3.829-7.166-.398l.398 18.711c-3.608-5.705-15.476-10.221-8.757 1.596l5.883 9.593zm10.307-28.793c3.23-15.889-17.841-15.145-13.37-.131M2823.103747 41.12c8.125 14.216 28.169 8.979 27.789-7.59 0-1.874.036-2.969.071-6.08-.083-3.545-.727-5.345-2.775-5.82-2.612-.606-3.985.933-4.298 4.154-.159-1.497 1.083-6.386-2.772-7.754-3.852-.462-3.487 2.83-4.23 5.843-.103-.906.192-2.685-.222-5.137-1.247-3.453-5.436-3.364-6.236.567l-.409 6.44V7.43c-1.144-4.83-6.663-3.829-7.166-.398l.398 18.711c-3.608-5.705-15.476-10.221-8.757 1.596l5.883 9.593zm10.307-28.793c3.23-15.889-17.841-15.145-13.37-.131M2925.408882 41.12c8.125 14.216 28.169 8.979 27.789-7.59 0-1.874.036-2.969.071-6.08-.083-3.545-.727-5.345-2.775-5.82-2.612-.606-3.985.933-4.298 4.154-.159-1.497 1.083-6.386-2.772-7.754-3.852-.462-3.487 2.83-4.23 5.843-.103-.906.192-2.685-.222-5.137-1.247-3.453-5.436-3.364-6.236.567l-.409 6.44V7.43c-1.144-4.83-6.663-3.829-7.166-.398l.398 18.711c-3.608-5.705-15.476-10.221-8.757 1.596l5.883 9.593zm10.307-28.793c3.23-15.889-17.841-15.145-13.37-.131M3028.093229 41.12c8.125 14.216 28.169 8.979 27.789-7.59 0-1.874.036-2.969.071-6.08-.083-3.545-.727-5.345-2.775-5.82-2.612-.606-3.985.933-4.298 4.154-.159-1.497 1.083-6.386-2.772-7.754-3.852-.462-3.487 2.83-4.23 5.843-.103-.906.192-2.685-.222-5.137-1.247-3.453-5.436-3.364-6.236.567l-.409 6.44V7.43c-1.144-4.83-6.663-3.829-7.166-.398l.398 18.711c-3.608-5.705-15.476-10.221-8.757 1.596l5.883 9.593zm10.307-28.793c3.23-15.889-17.841-15.145-13.37-.131" fill="none" stroke="#000000"/><path d="M3131.060619 41.12c8.125 14.216 28.169 8.979 27.789-7.59 0-1.874.036-2.969.071-6.08-.083-3.545-.727-5.345-2.775-5.82-2.612-.606-3.985.933-4.298 4.154-.159-1.497 1.083-6.386-2.772-7.754-3.852-.462-3.487 2.83-4.23 5.843-.103-.906.192-2.685-.222-5.137-1.247-3.453-5.436-3.364-6.236.567l-.409 6.44V7.43c-1.144-4.83-6.663-3.829-7.166-.398l.398 18.711c-3.608-5.705-15.476-10.221-8.757 1.596l5.883 9.593zm10.307-28.793c3.23-15.889-17.841-15.145-13.37-.131" fill="none" stroke="#000000" opacity=".999456"/><path d="M3234.151439 41.12c8.125 14.216 28.169 8.979 27.789-7.59 0-1.874.036-2.969.071-6.08-.083-3.545-.727-5.345-2.775-5.82-2.612-.606-3.985.933-4.298 4.154-.159-1.497 1.083-6.386-2.772-7.754-3.852-.462-3.487 2.83-4.23 5.843-.103-.906.192-2.685-.222-5.137-1.247-3.453-5.436-3.364-6.236.567l-.409 6.44V7.43c-1.144-4.83-6.663-3.829-7.166-.398l.398 18.711c-3.608-5.705-15.476-10.221-8.757 1.596l5.883 9.593zm10.307-28.793c3.23-15.889-17.841-15.145-13.37-.131" fill="none" stroke="#000000" opacity=".994111"/><path d="M3337.193496 41.12c8.125 14.216 28.169 8.979 27.789-7.59 0-1.874.036-2.969.071-6.08-.083-3.545-.727-5.345-2.775-5.82-2.612-.606-3.985.933-4.298 4.154-.159-1.497 1.083-6.386-2.772-7.754-3.852-.462-3.487 2.83-4.23 5.843-.103-.906.192-2.685-.222-5.137-1.247-3.453-5.436-3.364-6.236.567l-.409 6.44V7.43c-1.144-4.83-6.663-3.829-7.166-.398l.398 18.711c-3.608-5.705-15.476-10.221-8.757 1.596l5.883 9.593zm10.307-28.793c3.23-15.889-17.841-15.145-13.37-.131" fill="none" stroke="#000000" opacity=".981935"/><path d="M3440.057194 41.12c8.125 14.216 28.169 8.979 27.789-7.59 0-1.874.036-2.969.071-6.08-.083-3.545-.727-5.345-2.775-5.82-2.612-.606-3.985.933-4.298 4.154-.159-1.497 1.083-6.386-2.772-7.754-3.852-.462-3.487 2.83-4.23 5.843-.103-.906.192-2.685-.222-5.137-1.247-3.453-5.436-3.364-6.236.567l-.409 6.44V7.43c-1.144-4.83-6.663-3.829-7.166-.398l.398 18.711c-3.608-5.705-15.476-10.221-8.757 1.596l5.883 9.593zm10.307-28.793c3.23-15.889-17.841-15.145-13.37-.131" fill="none" stroke="#000000" opacity=".961161"/><path d="M3542.674788 41.12c8.125 14.216 28.169 8.979 27.789-7.59 0-1.874.036-2.969.071-6.08-.083-3.545-.727-5.345-2.775-5.82-2.612-.606-3.985.933-4.298 4.154-.159-1.497 1.083-6.386-2.772-7.754-3.852-.462-3.487 2.83-4.23 5.843-.103-.906.192-2.685-.222-5.137-1.247-3.453-5.436-3.364-6.236.567l-.409 6.44V7.43c-1.144-4.83-6.663-3.829-7.166-.398l.398 18.711c-3.608-5.705-15.476-10.221-8.757 1.596l5.883 9.593zm10.307-28.793c3.23-15.889-17.841-15.145-13.37-.131" fill="none" stroke="#000000" opacity=".929491"/><path d="M3645.02754 41.12c8.125 14.216 28.169 8.979 27.789-7.59 0-1.874.036-2.969.071-6.08-.083-3.545-.727-5.345-2.775-5.82-2.612-.606-3.985.933-4.298 4.154-.159-1.497 1.083-6.386-2.772-7.754-3.852-.462-3.487 2.83-4.23 5.843-.103-.906.192-2.685-.222-5.137-1.247-3.453-5.436-3.364-6.236.567l-.409 6.44V7.43c-1.144-4.83-6.663-3.829-7.166-.398l.398 18.711c-3.608-5.705-15.476-10.221-8.757 1.596l5.883 9.593zm10.307-28.793c3.23-15.889-17.841-15.145-13.37-.131" fill="none" stroke="#000000" opacity=".884146"/><path d="M3747.12472 41.12c8.125 14.216 28.169 8.979 27.789-7.59 0-1.874.036-2.969.071-6.08-.083-3.545-.727-5.345-2.775-5.82-2.612-.606-3.985.933-4.298 4.154-.159-1.497 1.083-6.386-2.772-7.754-3.852-.462-3.487 2.83-4.23 5.843-.103-.906.192-2.685-.222-5.137-1.247-3.453-5.436-3.364-6.236.567l-.409 6.44V7.43c-1.144-4.83-6.663-3.829-7.166-.398l.398 18.711c-3.608-5.705-15.476-10.221-8.757 1.596l5.883 9.593zm10.307-28.793c3.23-15.889-17.841-15.145-13.37-.131" fill="none" stroke="#000000" opacity=".822498"/><path d="M3848.98784 41.12c8.125 14.216 28.169 8.979 27.789-7.59 0-1.874.036-2.969.071-6.08-.083-3.545-.727-5.345-2.775-5.82-2.612-.606-3.985.933-4.298 4.154-.159-1.497 1.083-6.386-2.772-7.754-3.852-.462-3.487 2.83-4.23 5.843-.103-.906.192-2.685-.222-5.137-1.247-3.453-5.436-3.364-6.236.567l-.409 6.44V7.43c-1.144-4.83-6.663-3.829-7.166-.398l.398 18.711c-3.608-5.705-15.476-10.221-8.757 1.596l5.883 9.593zm10.307-28.793c3.23-15.889-17.841-15.145-13.37-.131" fill="none" stroke="#000000" opacity=".743997"/><path d="M3950.64181 41.12c8.125 14.216 28.169 8.979 27.789-7.59 0-1.874.036-2.969.071-6.08-.083-3.545-.727-5.345-2.775-5.82-2.612-.606-3.985.933-4.298 4.154-.159-1.497 1.083-6.386-2.772-7.754-3.852-.462-3.487 2.83-4.23 5.843-.103-.906.192-2.685-.222-5.137-1.247-3.453-5.436-3.364-6.236.567l-.409 6.44V7.43c-1.144-4.83-6.663-3.829-7.166-.398l.398 18.711c-3.608-5.705-15.476-10.221-8.757 1.596l5.883 9.593zm10.307-28.793c3.23-15.889-17.841-15.145-13.37-.131" fill="none" stroke="#000000" opacity=".653093"/><path d="M4052.110803 41.12c8.125 14.216 28.169 8.979 27.789-7.59 0-1.874.036-2.969.071-6.08-.083-3.545-.727-5.345-2.775-5.82-2.612-.606-3.985.933-4.298 4.154-.159-1.497 1.083-6.386-2.772-7.754-3.852-.462-3.487 2.83-4.23 5.843-.103-.906.192-2.685-.222-5.137-1.247-3.453-5.436-3.364-6.236.567l-.409 6.44V7.43c-1.144-4.83-6.663-3.829-7.166-.398l.398 18.711c-3.608-5.705-15.476-10.221-8.757 1.596l5.883 9.593zm10.307-28.793c3.23-15.889-17.841-15.145-13.37-.131" fill="none" stroke="#000000" opacity=".559202"/><path d="M4153.416624 41.12c8.125 14.216 28.169 8.979 27.789-7.59 0-1.874.036-2.969.071-6.08-.083-3.545-.727-5.345-2.775-5.82-2.612-.606-3.985.933-4.298 4.154-.159-1.497 1.083-6.386-2.772-7.754-3.852-.462-3.487 2.83-4.23 5.843-.103-.906.192-2.685-.222-5.137-1.247-3.453-5.436-3.364-6.236.567l-.409 6.44V7.43c-1.144-4.83-6.663-3.829-7.166-.398l.398 18.711c-3.608-5.705-15.476-10.221-8.757 1.596l5.883 9.593zm10.307-28.793c3.23-15.889-17.841-15.145-13.37-.131" fill="none" stroke="#000000" opacity=".47137"/><path d="M4254.578309 41.12c8.125 14.216 28.169 8.979 27.789-7.59 0-1.874.036-2.969.071-6.08-.083-3.545-.727-5.345-2.775-5.82-2.612-.606-3.985.933-4.298 4.154-.159-1.497 1.083-6.386-2.772-7.754-3.852-.462-3.487 2.83-4.23 5.843-.103-.906.192-2.685-.222-5.137-1.247-3.453-5.436-3.364-6.236.567l-.409 6.44V7.43c-1.144-4.83-6.663-3.829-7.166-.398l.398 18.711c-3.608-5.705-15.476-10.221-8.757 1.596l5.883 9.593zm10.307-28.793c3.23-15.889-17.841-15.145-13.37-.131" fill="none" stroke="#000000" opacity=".394074"/><path d="M4355.612232 41.12c8.125 14.216 28.169 8.979 27.789-7.59 0-1.874.036-2.969.071-6.08-.083-3.545-.727-5.345-2.775-5.82-2.612-.606-3.985.933-4.298 4.154-.159-1.497 1.083-6.386-2.772-7.754-3.852-.462-3.487 2.83-4.23 5.843-.103-.906.192-2.685-.222-5.137-1.247-3.453-5.436-3.364-6.236.567l-.409 6.44V7.43c-1.144-4.83-6.663-3.829-7.166-.398l.398 18.711c-3.608-5.705-15.476-10.221-8.757 1.596l5.883 9.593zm10.307-28.793c3.23-15.889-17.841-15.145-13.37-.131" fill="none" stroke="#000000" opacity=".327936"/><path d="M4456.5324 41.12c8.125 14.216 28.169 8.979 27.789-7.59 0-1.874.036-2.969.071-6.08-.083-3.545-.727-5.345-2.775-5.82-2.612-.606-3.985.933-4.298 4.154-.159-1.497 1.083-6.386-2.772-7.754-3.852-.462-3.487 2.83-4.23 5.843-.103-.906.192-2.685-.222-5.137-1.247-3.453-5.436-3.364-6.236.567l-.409 6.44V7.43c-1.144-4.83-6.663-3.829-7.166-.398l.398 18.711c-3.608-5.705-15.476-10.221-8.757 1.596l5.883 9.593zm10.307-28.793c3.23-15.889-17.841-15.145-13.37-.131" fill="none" stroke="#000000" opacity=".271881"/><path d="M4557.350787 41.12c8.125 14.216 28.169 8.979 27.789-7.59 0-1.874.036-2.969.071-6.08-.083-3.545-.727-5.345-2.775-5.82-2.612-.606-3.985.933-4.298 4.154-.159-1.497 1.083-6.386-2.772-7.754-3.852-.462-3.487 2.83-4.23 5.843-.103-.906.192-2.685-.222-5.137-1.247-3.453-5.436-3.364-6.236.567l-.409 6.44V7.43c-1.144-4.83-6.663-3.829-7.166-.398l.398 18.711c-3.608-5.705-15.476-10.221-8.757 1.596l5.883 9.593zm10.307-28.793c3.23-15.889-17.841-15.145-13.37-.131" fill="none" stroke="#000000" opacity=".224439"/><path d="M4658.077656 41.12c8.125 14.216 28.169 8.979 27.789-7.59 0-1.874.036-2.969.071-6.08-.083-3.545-.727-5.345-2.775-5.82-2.612-.606-3.985.933-4.298 4.154-.159-1.497 1.083-6.386-2.772-7.754-3.852-.462-3.487 2.83-4.23 5.843-.103-.906.192-2.685-.222-5.137-1.247-3.453-5.436-3.364-6.236.567l-.409 6.44V7.43c-1.144-4.83-6.663-3.829-7.166-.398l.398 18.711c-3.608-5.705-15.476-10.221-8.757 1.596l5.883 9.593zm10.307-28.793c3.23-15.889-17.841-15.145-13.37-.131" fill="none" stroke="#000000" opacity=".184232"/><path d="M4758.721835 41.12c8.125 14.216 28.169 8.979 27.789-7.59 0-1.874.036-2.969.071-6.08-.083-3.545-.727-5.345-2.775-5.82-2.612-.606-3.985.933-4.298 4.154-.159-1.497 1.083-6.386-2.772-7.754-3.852-.462-3.487 2.83-4.23 5.843-.103-.906.192-2.685-.222-5.137-1.247-3.453-5.436-3.364-6.236.567l-.409 6.44V7.43c-1.144-4.83-6.663-3.829-7.166-.398l.398 18.711c-3.608-5.705-15.476-10.221-8.757 1.596l5.883 9.593zm10.307-28.793c3.23-15.889-17.841-15.145-13.37-.131" fill="none" stroke="#000000" opacity=".150107"/><path d="M4859.290952 41.12c8.125 14.216 28.169 8.979 27.789-7.59 0-1.874.036-2.969.071-6.08-.083-3.545-.727-5.345-2.775-5.82-2.612-.606-3.985.933-4.298 4.154-.159-1.497 1.083-6.386-2.772-7.754-3.852-.462-3.487 2.83-4.23 5.843-.103-.906.192-2.685-.222-5.137-1.247-3.453-5.436-3.364-6.236.567l-.409 6.44V7.43c-1.144-4.83-6.663-3.829-7.166-.398l.398 18.711c-3.608-5.705-15.476-10.221-8.757 1.596l5.883 9.593zm10.307-28.793c3.23-15.889-17.841-15.145-13.37-.131" fill="none" stroke="#000000" opacity=".121126"/><path d="M4959.791635 41.12c8.125 14.216 28.169 8.979 27.789-7.59 0-1.874.036-2.969.071-6.08-.083-3.545-.727-5.345-2.775-5.82-2.612-.606-3.985.933-4.298 4.154-.159-1.497 1.083-6.386-2.772-7.754-3.852-.462-3.487 2.83-4.23 5.843-.103-.906.192-2.685-.222-5.137-1.247-3.453-5.436-3.364-6.236.567l-.409 6.44V7.43c-1.144-4.83-6.663-3.829-7.166-.398l.398 18.711c-3.608-5.705-15.476-10.221-8.757 1.596l5.883 9.593zm10.307-28.793c3.23-15.889-17.841-15.145-13.37-.131" fill="none" stroke="#000000" opacity=".096537"/><path d="M5060.229665 41.12c8.125 14.216 28.169 8.979 27.789-7.59 0-1.874.036-2.969.071-6.08-.083-3.545-.727-5.345-2.775-5.82-2.612-.606-3.985.933-4.298 4.154-.159-1.497 1.083-6.386-2.772-7.754-3.852-.462-3.487 2.83-4.23 5.843-.103-.906.192-2.685-.222-5.137-1.247-3.453-5.436-3.364-6.236.567l-.409 6.44V7.43c-1.144-4.83-6.663-3.829-7.166-.398l.398 18.711c-3.608-5.705-15.476-10.221-8.757 1.596l5.883 9.593zm10.307-28.793c3.23-15.889-17.841-15.145-13.37-.131" fill="none" stroke="#000000" opacity=".075736"/><path d="M5160.610114 41.12c8.125 14.216 28.169 8.979 27.789-7.59 0-1.874.036-2.969.071-6.08-.083-3.545-.727-5.345-2.775-5.82-2.612-.606-3.985.933-4.298 4.154-.159-1.497 1.083-6.386-2.772-7.754-3.852-.462-3.487 2.83-4.23 5.843-.103-.906.192-2.685-.222-5.137-1.247-3.453-5.436-3.364-6.236.567l-.409 6.44V7.43c-1.144-4.83-6.663-3.829-7.166-.398l.398 18.711c-3.608-5.705-15.476-10.221-8.757 1.596l5.883 9.593zm10.307-28.793c3.23-15.889-17.841-15.145-13.37-.131" fill="none" stroke="#000000" opacity=".058231"/><path d="M5260.937455 41.12c8.125 14.216 28.169 8.979 27.789-7.59 0-1.874.036-2.969.071-6.08-.083-3.545-.727-5.345-2.775-5.82-2.612-.606-3.985.933-4.298 4.154-.159-1.497 1.083-6.386-2.772-7.754-3.852-.462-3.487 2.83-4.23 5.843-.103-.906.192-2.685-.222-5.137-1.247-3.453-5.436-3.364-6.236.567l-.409 6.44V7.43c-1.144-4.83-6.663-3.829-7.166-.398l.398 18.711c-3.608-5.705-15.476-10.221-8.757 1.596l5.883 9.593zm10.307-28.793c3.23-15.889-17.841-15.145-13.37-.131" fill="none" stroke="#000000" opacity=".04362"/><path d="M5361.215645 41.12c8.125 14.216 28.169 8.979 27.789-7.59 0-1.874.036-2.969.071-6.08-.083-3.545-.727-5.345-2.775-5.82-2.612-.606-3.985.933-4.298 4.154-.159-1.497 1.083-6.386-2.772-7.754-3.852-.462-3.487 2.83-4.23 5.843-.103-.906.192-2.685-.222-5.137-1.247-3.453-5.436-3.364-6.236.567l-.409 6.44V7.43c-1.144-4.83-6.663-3.829-7.166-.398l.398 18.711c-3.608-5.705-15.476-10.221-8.757 1.596l5.883 9.593zm10.307-28.793c3.23-15.889-17.841-15.145-13.37-.131" fill="none" stroke="#000000" opacity=".03157"/><path d="M5461.448207 41.12c8.125 14.216 28.169 8.979 27.789-7.59 0-1.874.036-2.969.071-6.08-.083-3.545-.727-5.345-2.775-5.82-2.612-.606-3.985.933-4.298 4.154-.159-1.497 1.083-6.386-2.772-7.754-3.852-.462-3.487 2.83-4.23 5.843-.103-.906.192-2.685-.222-5.137-1.247-3.453-5.436-3.364-6.236.567l-.409 6.44V7.43c-1.144-4.83-6.663-3.829-7.166-.398l.398 18.711c-3.608-5.705-15.476-10.221-8.757 1.596l5.883 9.593zm10.307-28.793c3.23-15.889-17.841-15.145-13.37-.131" fill="none" stroke="#000000" opacity=".021803"/><path d="M5561.638285 41.12c8.125 14.216 28.169 8.979 27.789-7.59 0-1.874.036-2.969.071-6.08-.083-3.545-.727-5.345-2.775-5.82-2.612-.606-3.985.933-4.298 4.154-.159-1.497 1.083-6.386-2.772-7.754-3.852-.462-3.487 2.83-4.23 5.843-.103-.906.192-2.685-.222-5.137-1.247-3.453-5.436-3.364-6.236.567l-.409 6.44V7.43c-1.144-4.83-6.663-3.829-7.166-.398l.398 18.711c-3.608-5.705-15.476-10.221-8.757 1.596l5.883 9.593zm10.307-28.793c3.23-15.889-17.841-15.145-13.37-.131" fill="none" stroke="#000000" opacity=".014086"/><path d="M5661.7887 41.12c8.125 14.216 28.169 8.979 27.789-7.59 0-1.874.036-2.969.071-6.08-.083-3.545-.727-5.345-2.775-5.82-2.612-.606-3.985.933-4.298 4.154-.159-1.497 1.083-6.386-2.772-7.754-3.852-.462-3.487 2.83-4.23 5.843-.103-.906.192-2.685-.222-5.137-1.247-3.453-5.436-3.364-6.236.567l-.409 6.44V7.43c-1.144-4.83-6.663-3.829-7.166-.398l.398 18.711c-3.608-5.705-15.476-10.221-8.757 1.596l5.883 9.593zm10.307-28.793c3.23-15.889-17.841-15.145-13.37-.131" fill="none" stroke="#000000" opacity=".00822"/><path d="M5761.90199 41.12c8.125 14.216 28.169 8.979 27.789-7.59 0-1.874.036-2.969.071-6.08-.083-3.545-.727-5.345-2.775-5.82-2.612-.606-3.985.933-4.298 4.154-.159-1.497 1.083-6.386-2.772-7.754-3.852-.462-3.487 2.83-4.23 5.843-.103-.906.192-2.685-.222-5.137-1.247-3.453-5.436-3.364-6.236.567l-.409 6.44V7.43c-1.144-4.83-6.663-3.829-7.166-.398l.398 18.711c-3.608-5.705-15.476-10.221-8.757 1.596l5.883 9.593zm10.307-28.793c3.23-15.889-17.841-15.145-13.37-.131" fill="none" stroke="#000000" opacity=".004034"/><path d="M5861.98045 41.12c8.125 14.216 28.169 8.979 27.789-7.59 0-1.874.036-2.969.071-6.08-.083-3.545-.727-5.345-2.775-5.82-2.612-.606-3.985.933-4.298 4.154-.159-1.497 1.083-6.386-2.772-7.754-3.852-.462-3.487 2.83-4.23 5.843-.103-.906.192-2.685-.222-5.137-1.247-3.453-5.436-3.364-6.236.567l-.409 6.44V7.43c-1.144-4.83-6.663-3.829-7.166-.398l.398 18.711c-3.608-5.705-15.476-10.221-8.757 1.596l5.883 9.593zm10.307-28.793c3.23-15.889-17.841-15.145-13.37-.131" fill="none" stroke="#000000" opacity=".001381"/><path d="M5962.026156 41.12c8.125 14.216 28.169 8.979 27.789-7.59 0-1.874.036-2.969.071-6.08-.083-3.545-.727-5.345-2.775-5.82-2.612-.606-3.985.933-4.298 4.154-.159-1.497 1.083-6.386-2.772-7.754-3.852-.462-3.487 2.83-4.23 5.843-.103-.906.192-2.685-.222-5.137-1.247-3.453-5.436-3.364-6.236.567l-.409 6.44V7.43c-1.144-4.83-6.663-3.829-7.166-.398l.398 18.711c-3.608-5.705-15.476-10.221-8.757 1.596l5.883 9.593zm10.307-28.793c3.23-15.889-17.841-15.145-13.37-.131" fill="none" stroke="#000000" opacity=".000133"/></svg>