<?xml version="1.0" standalone="no"?>
<!DOCTYPE svg PUBLIC "-//W3C//DTD SVG 20010904//EN"
 "http://www.w3.org/TR/2001/REC-SVG-20010904/DTD/svg10.dtd">
<svg version="1.0" xmlns="http://www.w3.org/2000/svg"
 width="910.000000pt" height="910.000000pt" viewBox="0 0 910.000000 910.000000"
 preserveAspectRatio="xMidYMid meet">
<metadata>
Created by potrace 1.11, written by Peter Selinger 2001-2013
</metadata>
<g transform="translate(0.000000,910.000000) scale(0.100000,-0.100000)"
fill="#000000" stroke="none">
<path d="M553 9068 c3 -18 9 -42 13 -52 6 -15 4 -17 -6 -11 -11 7 -12 -269 -6
-1606 8 -1851 15 -2809 21 -2819 2 -3 4 -393 3 -866 -1 -1045 -1 -1007 9
-1231 l8 -183 80 -46 c44 -25 114 -64 155 -86 41 -23 86 -48 100 -58 22 -15
167 -100 275 -160 22 -12 76 -44 120 -70 232 -137 279 -164 438 -250 20 -11
117 -68 215 -127 97 -58 202 -119 232 -136 30 -16 71 -39 90 -52 46 -29 198
-115 204 -115 2 0 41 -22 86 -50 45 -27 83 -50 85 -50 3 0 87 -48 150 -87 11
-7 27 -15 35 -20 8 -4 53 -30 100 -58 99 -60 148 -88 430 -247 25 -14 92 -53
150 -88 58 -34 125 -74 150 -88 25 -14 126 -73 225 -130 99 -58 214 -123 255
-145 41 -22 94 -52 118 -68 24 -16 45 -29 48 -29 3 0 53 -29 112 -65 95 -58
112 -64 148 -61 42 4 124 48 124 66 0 6 3 9 8 9 22 -4 40 4 66 26 16 14 33 25
39 25 5 0 25 13 43 30 19 16 40 27 46 25 7 -3 25 6 40 20 15 14 32 25 39 25
19 0 122 62 147 87 12 13 27 21 33 17 6 -3 23 5 37 19 15 14 43 34 62 45 19
11 114 66 210 122 96 57 195 114 220 128 25 13 52 29 60 36 8 6 28 18 45 26
46 23 418 240 550 321 17 11 37 22 45 26 8 4 61 34 117 67 56 34 146 86 199
116 54 30 122 70 153 88 31 19 74 44 96 57 22 12 134 79 249 149 114 69 210
126 213 126 3 0 338 196 425 249 56 34 327 194 500 295 104 60 101 56 113 156
7 60 23 1270 29 2247 2 337 7 659 11 715 4 57 9 380 11 718 1 338 5 703 8 810
3 107 8 655 11 1218 l7 1022 -4002 0 -4003 0 6 -32z m4382 -1118 c197 -10 344
-35 540 -91 273 -78 543 -214 780 -393 82 -61 205 -173 205 -186 0 -7 -35 -54
-78 -105 -9 -11 -133 -166 -276 -345 -246 -307 -300 -370 -316 -370 -3 0 -53
29 -111 65 -189 119 -362 196 -549 247 -77 20 -107 22 -315 23 -220 0 -233 -1
-295 -24 -82 -31 -104 -45 -158 -95 -65 -61 -84 -111 -83 -213 1 -176 100
-237 851 -528 624 -242 710 -280 865 -383 328 -217 519 -521 585 -929 29 -176
25 -417 -9 -558 -5 -22 -12 -51 -15 -64 -39 -168 -165 -426 -274 -559 -65 -80
-214 -221 -307 -291 -204 -154 -433 -255 -770 -340 -205 -52 -675 -68 -920
-32 -248 36 -290 46 -530 121 -335 105 -684 295 -943 510 l-73 61 28 37 c98
131 718 872 728 872 6 0 80 -46 165 -103 265 -175 507 -285 760 -345 119 -28
440 -25 541 6 131 39 197 89 246 185 32 64 36 167 8 235 -21 51 -111 136 -187
174 -81 41 -220 105 -248 113 -14 4 -83 32 -155 62 -171 71 -240 100 -425 177
-484 200 -642 291 -845 488 -128 123 -202 222 -274 363 -114 225 -154 397
-155 665 -1 177 15 280 70 448 140 429 527 799 1023 979 232 84 410 116 721
131 14 1 102 -3 195 -8z"/>
</g>
</svg>
