<svg xmlns="http://www.w3.org/2000/svg" viewBox="0 0 6200 120" width="6200" height="120"><g fill="none" stroke="#000000" stroke-width="4"><path d="M3.082 59.511l97.795.542 32.752-24.24" stroke-dasharray="33.25030232598801,105.29262403229536" stroke-dashoffset="73.566294"/><path d="M68.125 34.842h65.832c27.97-.855 24.172-29.222-.259-29.222-6.73 0-22.233-.026-37.036-.015-11.351.009-22.291.04-28.544.122-15.117.198-20.281 13.695.061 28.947 10.684 8.01 59.59 44.469 65.778 49.619" stroke-dasharray="65.27834229457223,245.57090672720034" stroke-dashoffset="310.849249"/><path d="M68.125 84.293h65.832c27.97.855 24.172 29.222-.259 29.222-6.73 0-22.233.027-37.036.014-11.351-.008-22.291-.039-28.544-.121-15.117-.199-20.281-13.696.061-28.947 10.684-8.01 59.59-44.468 65.778-49.619" stroke-dasharray="65.27828127859482,245.57067719090435" stroke-dashoffset="310.848958"/><path d="M198.672 60.594l-97.795-.541-32.752 24.24" stroke-dasharray="33.25030099710609,105.29261982416928" stroke-dashoffset="73.566291"/></g><g fill="none" stroke="#000000" stroke-width="4"><path d="M203.082 59.511l97.795.542 32.752-24.24" stroke-dasharray="33.25030232598801,105.29262403229536" stroke-dashoffset="74.257694"/><path d="M268.125 34.842h65.832c27.97-.855 24.172-29.222-.259-29.222-6.73 0-22.233-.026-37.036-.015-11.351.009-22.291.04-28.544.122-15.117.198-20.281 13.695.061 28.947 10.684 8.01 59.59 44.469 65.778 49.619" stroke-dasharray="65.27834229457223,245.57090672720034" stroke-dashoffset="309.12926"/><path d="M268.125 84.293h65.832c27.97.855 24.172 29.222-.259 29.222-6.73 0-22.233.027-37.036.014-11.351-.008-22.291-.039-28.544-.121-15.117-.199-20.281-13.696.061-28.947 10.684-8.01 59.59-44.468 65.778-49.619" stroke-dasharray="65.27828127859482,245.57067719090435" stroke-dashoffset="309.128971"/><path d="M398.672 60.594l-97.795-.541-32.752 24.24" stroke-dasharray="33.25030099710609,105.29261982416928" stroke-dashoffset="74.257691"/></g><g fill="none" stroke="#000000" stroke-width="4"><path d="M403.082 59.511l97.795.542 32.752-24.24" stroke-dasharray="33.25030232598801,105.29262403229536" stroke-dashoffset="76.81063"/><path d="M468.125 34.842h65.832c27.97-.855 24.172-29.222-.259-29.222-6.73 0-22.233-.026-37.036-.015-11.351.009-22.291.04-28.544.122-15.117.198-20.281 13.695.061 28.947 10.684 8.01 59.59 44.469 65.778 49.619" stroke-dasharray="65.27834229457223,245.57090672720034" stroke-dashoffset="302.778353"/><path d="M468.125 84.293h65.832c27.97.855 24.172 29.222-.259 29.222-6.73 0-22.233.027-37.036.014-11.351-.008-22.291-.039-28.544-.121-15.117-.199-20.281-13.696.061-28.947 10.684-8.01 59.59-44.468 65.778-49.619" stroke-dasharray="65.27828127859482,245.57067719090435" stroke-dashoffset="302.77807"/><path d="M598.672 60.594l-97.795-.541-32.752 24.24" stroke-dasharray="33.25030099710609,105.29261982416928" stroke-dashoffset="76.810627"/></g><g fill="none" stroke="#000000" stroke-width="4"><path d="M603.082 59.511l97.795.542 32.752-24.24" stroke-dasharray="33.25030232598801,105.29262403229536" stroke-dashoffset="82.269704"/><path d="M668.125 34.842h65.832c27.97-.855 24.172-29.222-.259-29.222-6.73 0-22.233-.026-37.036-.015-11.351.009-22.291.04-28.544.122-15.117.198-20.281 13.695.061 28.947 10.684 8.01 59.59 44.469 65.778 49.619" stroke-dasharray="65.27834229457223,245.57090672720034" stroke-dashoffset="289.197877"/><path d="M668.125 84.293h65.832c27.97.855 24.172 29.222-.259 29.222-6.73 0-22.233.027-37.036.014-11.351-.008-22.291-.039-28.544-.121-15.117-.199-20.281-13.696.061-28.947 10.684-8.01 59.59-44.468 65.778-49.619" stroke-dasharray="65.27828127859482,245.57067719090435" stroke-dashoffset="289.197606"/><path d="M798.672 60.594l-97.795-.541-32.752 24.24" stroke-dasharray="33.25030099710609,105.29261982416928" stroke-dashoffset="82.269701"/></g><g fill="none" stroke="#000000" stroke-width="4"><path d="M803.082 59.511l97.795.542 32.752-24.24" stroke-dasharray="33.25030232598801,105.29262403229536" stroke-dashoffset="91.633276"/><path d="M868.125 34.842h65.832c27.97-.855 24.172-29.222-.259-29.222-6.73 0-22.233-.026-37.036-.015-11.351.009-22.291.04-28.544.122-15.117.198-20.281 13.695.061 28.947 10.684 8.01 59.59 44.469 65.778 49.619" stroke-dasharray="65.27834229457223,245.57090672720034" stroke-dashoffset="265.904228"/><path d="M868.125 84.293h65.832c27.97.855 24.172 29.222-.259 29.222-6.73 0-22.233.027-37.036.014-11.351-.008-22.291-.039-28.544-.121-15.117-.199-20.281-13.696.061-28.947 10.684-8.01 59.59-44.468 65.778-49.619" stroke-dasharray="65.27828127859482,245.57067719090435" stroke-dashoffset="265.903979"/><path d="M998.672 60.594l-97.795-.541-32.752 24.24" stroke-dasharray="33.25030099710609,105.29261982416928" stroke-dashoffset="91.633273"/></g><g fill="none" stroke="#000000" stroke-width="4"><path d="M1003.082 59.511l97.795.542 32.752-24.24" stroke-dasharray="33.25030232598801,105.29262403229536" stroke-dashoffset="103.276972"/><path d="M1068.125 34.842h65.832c27.97-.855 24.172-29.222-.259-29.222-6.73 0-22.233-.026-37.036-.015-11.351.009-22.291.04-28.544.122-15.117.198-20.281 13.695.061 28.947 10.684 8.01 59.59 44.469 65.778 49.619" stroke-dasharray="65.27834229457223,245.57090672720034" stroke-dashoffset="236.938342"/><path d="M1068.125 84.293h65.832c27.97.855 24.172 29.222-.259 29.222-6.73 0-22.233.027-37.036.014-11.351-.008-22.291-.039-28.544-.121-15.117-.199-20.281-13.696.061-28.947 10.684-8.01 59.59-44.468 65.778-49.619" stroke-dasharray="65.27828127859482,245.57067719090435" stroke-dashoffset="236.93812"/><path d="M1198.672 60.594l-97.795-.541-32.752 24.24" stroke-dasharray="33.25030099710609,105.29261982416928" stroke-dashoffset="103.276968"/></g><g fill="none" stroke="#000000" stroke-width="4"><path d="M1203.082 59.511l97.795.542 32.752-24.24" stroke-dasharray="33.25030232598801,105.29262403229536" stroke-dashoffset="113.435614"/><path d="M1268.125 34.842h65.832c27.97-.855 24.172-29.222-.259-29.222-6.73 0-22.233-.026-37.036-.015-11.351.009-22.291.04-28.544.122-15.117.198-20.281 13.695.061 28.947 10.684 8.01 59.59 44.469 65.778 49.619" stroke-dasharray="65.27834229457223,245.57090672720034" stroke-dashoffset="211.666807"/><path d="M1268.125 84.293h65.832c27.97.855 24.172 29.222-.259 29.222-6.73 0-22.233.027-37.036.014-11.351-.008-22.291-.039-28.544-.121-15.117-.199-20.281-13.696.061-28.947 10.684-8.01 59.59-44.468 65.778-49.619" stroke-dasharray="65.27828127859482,245.57067719090435" stroke-dashoffset="211.666609"/><path d="M1398.672 60.594l-97.795-.541-32.752 24.24" stroke-dasharray="33.25030099710609,105.29261982416928" stroke-dashoffset="113.43561"/></g><g fill="none" stroke="#000000" stroke-width="4"><path d="M1403.082 59.511l97.795.542 32.752-24.24" stroke-dasharray="33.25030232598801,105.29262403229536" stroke-dashoffset="120.997117"/><path d="M1468.125 34.842h65.832c27.97-.855 24.172-29.222-.259-29.222-6.73 0-22.233-.026-37.036-.015-11.351.009-22.291.04-28.544.122-15.117.198-20.281 13.695.061 28.947 10.684 8.01 59.59 44.469 65.778 49.619" stroke-dasharray="65.27834229457223,245.57090672720034" stroke-dashoffset="192.856145"/><path d="M1468.125 84.293h65.832c27.97.855 24.172 29.222-.259 29.222-6.73 0-22.233.027-37.036.014-11.351-.008-22.291-.039-28.544-.121-15.117-.199-20.281-13.696.061-28.947 10.684-8.01 59.59-44.468 65.778-49.619" stroke-dasharray="65.27828127859482,245.57067719090435" stroke-dashoffset="192.855964"/><path d="M1598.672 60.594l-97.795-.541-32.752 24.24" stroke-dasharray="33.25030099710609,105.29261982416928" stroke-dashoffset="120.997112"/></g><g fill="none" stroke="#000000" stroke-width="4"><path d="M1603.082 59.511l97.795.542 32.752-24.24" stroke-dasharray="33.25030232598801,105.29262403229536" stroke-dashoffset="126.48534"/><path d="M1668.125 34.842h65.832c27.97-.855 24.172-29.222-.259-29.222-6.73 0-22.233-.026-37.036-.015-11.351.009-22.291.04-28.544.122-15.117.198-20.281 13.695.061 28.947 10.684 8.01 59.59 44.469 65.778 49.619" stroke-dasharray="65.27834229457223,245.57090672720034" stroke-dashoffset="179.203157"/><path d="M1668.125 84.293h65.832c27.97.855 24.172 29.222-.259 29.222-6.73 0-22.233.027-37.036.014-11.351-.008-22.291-.039-28.544-.121-15.117-.199-20.281-13.696.061-28.947 10.684-8.01 59.59-44.468 65.778-49.619" stroke-dasharray="65.27828127859482,245.57067719090435" stroke-dashoffset="179.202989"/><path d="M1798.672 60.594l-97.795-.541-32.752 24.24" stroke-dasharray="33.25030099710609,105.29261982416928" stroke-dashoffset="126.485335"/></g><g fill="none" stroke="#000000" stroke-width="4"><path d="M1803.082 59.511l97.795.542 32.752-24.24" stroke-dasharray="33.25030232598801,105.29262403229536" stroke-dashoffset="130.483739"/><path d="M1868.125 34.842h65.832c27.97-.855 24.172-29.222-.259-29.222-6.73 0-22.233-.026-37.036-.015-11.351.009-22.291.04-28.544.122-15.117.198-20.281 13.695.061 28.947 10.684 8.01 59.59 44.469 65.778 49.619" stroke-dasharray="65.27834229457223,245.57090672720034" stroke-dashoffset="169.256386"/><path d="M1868.125 84.293h65.832c27.97.855 24.172 29.222-.259 29.222-6.73 0-22.233.027-37.036.014-11.351-.008-22.291-.039-28.544-.121-15.117-.199-20.281-13.696.061-28.947 10.684-8.01 59.59-44.468 65.778-49.619" stroke-dasharray="65.27828127859482,245.57067719090435" stroke-dashoffset="169.256228"/><path d="M1998.672 60.594l-97.795-.541-32.752 24.24" stroke-dasharray="33.25030099710609,105.29261982416928" stroke-dashoffset="130.483734"/></g><g fill="none" stroke="#000000" stroke-width="4"><path d="M2003.082 59.511l97.795.542 32.752-24.24" stroke-dasharray="33.25030232598801,105.29262403229536" stroke-dashoffset="133.395204"/><path d="M2068.125 34.842h65.832c27.97-.855 24.172-29.222-.259-29.222-6.73 0-22.233-.026-37.036-.015-11.351.009-22.291.04-28.544.122-15.117.198-20.281 13.695.061 28.947 10.684 8.01 59.59 44.469 65.778 49.619" stroke-dasharray="65.27834229457223,245.57090672720034" stroke-dashoffset="162.013569"/><path d="M2068.125 84.293h65.832c27.97.855 24.172 29.222-.259 29.222-6.73 0-22.233.027-37.036.014-11.351-.008-22.291-.039-28.544-.121-15.117-.199-20.281-13.696.061-28.947 10.684-8.01 59.59-44.468 65.778-49.619" stroke-dasharray="65.27828127859482,245.57067719090435" stroke-dashoffset="162.013418"/><path d="M2198.672 60.594l-97.795-.541-32.752 24.24" stroke-dasharray="33.25030099710609,105.29261982416928" stroke-dashoffset="133.395198"/></g><g fill="none" stroke="#000000" stroke-width="4"><path d="M2203.082 59.511l97.795.542 32.752-24.24" stroke-dasharray="33.25030232598801,105.29262403229536" stroke-dashoffset="135.485884"/><path d="M2268.125 34.842h65.832c27.97-.855 24.172-29.222-.259-29.222-6.73 0-22.233-.026-37.036-.015-11.351.009-22.291.04-28.544.122-15.117.198-20.281 13.695.061 28.947 10.684 8.01 59.59 44.469 65.778 49.619" stroke-dasharray="65.27834229457223,245.57090672720034" stroke-dashoffset="156.812608"/><path d="M2268.125 84.293h65.832c27.97.855 24.172 29.222-.259 29.222-6.73 0-22.233.027-37.036.014-11.351-.008-22.291-.039-28.544-.121-15.117-.199-20.281-13.696.061-28.947 10.684-8.01 59.59-44.468 65.778-49.619" stroke-dasharray="65.27828127859482,245.57067719090435" stroke-dashoffset="156.812462"/><path d="M2398.672 60.594l-97.795-.541-32.752 24.24" stroke-dasharray="33.25030099710609,105.29261982416928" stroke-dashoffset="135.485879"/></g><g fill="none" stroke="#000000" stroke-width="4"><path d="M2403.082 59.511l97.795.542 32.752-24.24" stroke-dasharray="33.25030232598801,105.29262403229536" stroke-dashoffset="136.935893"/><path d="M2468.125 34.842h65.832c27.97-.855 24.172-29.222-.259-29.222-6.73 0-22.233-.026-37.036-.015-11.351.009-22.291.04-28.544.122-15.117.198-20.281 13.695.061 28.947 10.684 8.01 59.59 44.469 65.778 49.619" stroke-dasharray="65.27834229457223,245.57090672720034" stroke-dashoffset="153.205438"/><path d="M2468.125 84.293h65.832c27.97.855 24.172 29.222-.259 29.222-6.73 0-22.233.027-37.036.014-11.351-.008-22.291-.039-28.544-.121-15.117-.199-20.281-13.696.061-28.947 10.684-8.01 59.59-44.468 65.778-49.619" stroke-dasharray="65.27828127859482,245.57067719090435" stroke-dashoffset="153.205295"/><path d="M2598.672 60.594l-97.795-.541-32.752 24.24" stroke-dasharray="33.25030099710609,105.29261982416928" stroke-dashoffset="136.935887"/></g><g fill="none" stroke="#000000" stroke-width="4"><path d="M2603.082 59.511l97.795.542 32.752-24.24" stroke-dasharray="33.25030232598801,105.29262403229536" stroke-dashoffset="137.871515"/><path d="M2668.125 34.842h65.832c27.97-.855 24.172-29.222-.259-29.222-6.73 0-22.233-.026-37.036-.015-11.351.009-22.291.04-28.544.122-15.117.198-20.281 13.695.061 28.947 10.684 8.01 59.59 44.469 65.778 49.619" stroke-dasharray="65.27834229457223,245.57090672720034" stroke-dashoffset="150.877901"/><path d="M2668.125 84.293h65.832c27.97.855 24.172 29.222-.259 29.222-6.73 0-22.233.027-37.036.014-11.351-.008-22.291-.039-28.544-.121-15.117-.199-20.281-13.696.061-28.947 10.684-8.01 59.59-44.468 65.778-49.619" stroke-dasharray="65.27828127859482,245.57067719090435" stroke-dashoffset="150.87776"/><path d="M2798.672 60.594l-97.795-.541-32.752 24.24" stroke-dasharray="33.25030099710609,105.29261982416928" stroke-dashoffset="137.87151"/></g><g fill="none" stroke="#000000" stroke-width="4"><path d="M2803.082 59.511l97.795.542 32.752-24.24" stroke-dasharray="33.25030232598801,105.29262403229536" stroke-dashoffset="138.384364"/><path d="M2868.125 34.842h65.832c27.97-.855 24.172-29.222-.259-29.222-6.73 0-22.233-.026-37.036-.015-11.351.009-22.291.04-28.544.122-15.117.198-20.281 13.695.061 28.947 10.684 8.01 59.59 44.469 65.778 49.619" stroke-dasharray="65.27834229457223,245.57090672720034" stroke-dashoffset="149.602094"/><path d="M2868.125 84.293h65.832c27.97.855 24.172 29.222-.259 29.222-6.73 0-22.233.027-37.036.014-11.351-.008-22.291-.039-28.544-.121-15.117-.199-20.281-13.696.061-28.947 10.684-8.01 59.59-44.468 65.778-49.619" stroke-dasharray="65.27828127859482,245.57067719090435" stroke-dashoffset="149.601954"/><path d="M2998.672 60.594l-97.795-.541-32.752 24.24" stroke-dasharray="33.25030099710609,105.29261982416928" stroke-dashoffset="138.384358"/></g><g fill="none" stroke="#000000" stroke-width="4"><path d="M3003.082 59.511l97.795.542 32.752-24.24" stroke-dasharray="33.25030232598801,105.29262403229536" stroke-dashoffset="138.542926"/><path d="M3068.125 34.842h65.832c27.97-.855 24.172-29.222-.259-29.222-6.73 0-22.233-.026-37.036-.015-11.351.009-22.291.04-28.544.122-15.117.198-20.281 13.695.061 28.947 10.684 8.01 59.59 44.469 65.778 49.619" stroke-dasharray="65.27834229457223,245.57090672720034" stroke-dashoffset="149.20764"/><path d="M3068.125 84.293h65.832c27.97.855 24.172 29.222-.259 29.222-6.73 0-22.233.027-37.036.014-11.351-.008-22.291-.039-28.544-.121-15.117-.199-20.281-13.696.061-28.947 10.684-8.01 59.59-44.468 65.778-49.619" stroke-dasharray="65.27828127859482,245.57067719090435" stroke-dashoffset="149.2075"/><path d="M3198.672 60.594l-97.795-.541-32.752 24.24" stroke-dasharray="33.25030099710609,105.29261982416928" stroke-dashoffset="138.542921"/></g><g fill="none" stroke="#000000" stroke-width="4"><path d="M3203.082 59.511l97.795.542 32.752-24.24" stroke-dasharray="33.25030232598801,105.29262403229536" stroke-dashoffset="137.496243"/><path d="M3268.125 34.842h65.832c27.97-.855 24.172-29.222-.259-29.222-6.73 0-22.233-.026-37.036-.015-11.351.009-22.291.04-28.544.122-15.117.198-20.281 13.695.061 28.947 10.684 8.01 59.59 44.469 65.778 49.619" stroke-dasharray="65.27834229457223,245.57090672720034" stroke-dashoffset="148.380722"/><path d="M3268.125 84.293h65.832c27.97.855 24.172 29.222-.259 29.222-6.73 0-22.233.027-37.036.014-11.351-.008-22.291-.039-28.544-.121-15.117-.199-20.281-13.696.061-28.947 10.684-8.01 59.59-44.468 65.778-49.619" stroke-dasharray="65.27828127859482,245.57067719090435" stroke-dashoffset="148.41366"/><path d="M3398.672 60.594l-97.795-.541-32.752 24.24" stroke-dasharray="33.25030099710609,105.29261982416928" stroke-dashoffset="137.496238"/></g><g fill="none" stroke="#000000" stroke-width="4"><path d="M3403.082 59.511l97.795.542 32.752-24.24" stroke-dasharray="33.25030232598801,105.29262403229536" stroke-dashoffset="133.631459"/><path d="M3468.125 34.842h65.832c27.97-.855 24.172-29.222-.259-29.222-6.73 0-22.233-.026-37.036-.015-11.351.009-22.291.04-28.544.122-15.117.198-20.281 13.695.061 28.947 10.684 8.01 59.59 44.469 65.778 49.619" stroke-dasharray="65.27834229457223,245.57090672720034" stroke-dashoffset="145.327401"/><path d="M3468.125 84.293h65.832c27.97.855 24.172 29.222-.259 29.222-6.73 0-22.233.027-37.036.014-11.351-.008-22.291-.039-28.544-.121-15.117-.199-20.281-13.696.061-28.947 10.684-8.01 59.59-44.468 65.778-49.619" stroke-dasharray="65.27828127859482,245.57067719090435" stroke-dashoffset="145.482475"/><path d="M3598.672 60.594l-97.795-.541-32.752 24.24" stroke-dasharray="33.25030099710609,105.29261982416928" stroke-dashoffset="133.631453"/></g><g fill="none" stroke="#000000" stroke-width="4"><path d="M3603.082 59.511l97.795.542 32.752-24.24" stroke-dasharray="33.25030232598801,105.29262403229536" stroke-dashoffset="125.367188"/><path d="M3668.125 34.842h65.832c27.97-.855 24.172-29.222-.259-29.222-6.73 0-22.233-.026-37.036-.015-11.351.009-22.291.04-28.544.122-15.117.198-20.281 13.695.061 28.947 10.684 8.01 59.59 44.469 65.778 49.619" stroke-dasharray="65.27834229457223,245.57090672720034" stroke-dashoffset="138.798326"/><path d="M3668.125 84.293h65.832c27.97.855 24.172 29.222-.259 29.222-6.73 0-22.233.027-37.036.014-11.351-.008-22.291-.039-28.544-.121-15.117-.199-20.281-13.696.061-28.947 10.684-8.01 59.59-44.468 65.778-49.619" stroke-dasharray="65.27828127859482,245.57067719090435" stroke-dashoffset="139.214568"/><path d="M3798.672 60.594l-97.795-.541-32.752 24.24" stroke-dasharray="33.25030099710609,105.29261982416928" stroke-dashoffset="125.367183"/></g><g fill="none" stroke="#000000" stroke-width="4"><path d="M3803.082 59.511l97.795.542 32.752-24.24" stroke-dasharray="33.25030232598801,105.29262403229536" stroke-dashoffset="111.192057"/><path d="M3868.125 34.842h65.832c27.97-.855 24.172-29.222-.259-29.222-6.73 0-22.233-.026-37.036-.015-11.351.009-22.291.04-28.544.122-15.117.198-20.281 13.695.061 28.947 10.684 8.01 59.59 44.469 65.778 49.619" stroke-dasharray="65.27834229457223,245.57090672720034" stroke-dashoffset="127.599456"/><path d="M3868.125 84.293h65.832c27.97.855 24.172 29.222-.259 29.222-6.73 0-22.233.027-37.036.014-11.351-.008-22.291-.039-28.544-.121-15.117-.199-20.281-13.696.061-28.947 10.684-8.01 59.59-44.468 65.778-49.619" stroke-dasharray="65.27828127859482,245.57067719090435" stroke-dashoffset="128.463663"/><path d="M3998.672 60.594l-97.795-.541-32.752 24.24" stroke-dasharray="33.25030099710609,105.29261982416928" stroke-dashoffset="111.192053"/></g><g fill="none" stroke="#000000" stroke-width="4"><path d="M4003.082 59.511l97.795.542 32.752-24.24" stroke-dasharray="33.25030232598801,105.29262403229536" stroke-dashoffset="93.565141"/><path d="M4068.125 34.842h65.832c27.97-.855 24.172-29.222-.259-29.222-6.73 0-22.233-.026-37.036-.015-11.351.009-22.291.04-28.544.122-15.117.198-20.281 13.695.061 28.947 10.684 8.01 59.59 44.469 65.778 49.619" stroke-dasharray="65.27834229457223,245.57090672720034" stroke-dashoffset="113.67355"/><path d="M4068.125 84.293h65.832c27.97.855 24.172 29.222-.259 29.222-6.73 0-22.233.027-37.036.014-11.351-.008-22.291-.039-28.544-.121-15.117-.199-20.281-13.696.061-28.947 10.684-8.01 59.59-44.468 65.778-49.619" stroke-dasharray="65.27828127859482,245.57067719090435" stroke-dashoffset="115.094806"/><path d="M4198.672 60.594l-97.795-.541-32.752 24.24" stroke-dasharray="33.25030099710609,105.29261982416928" stroke-dashoffset="93.565137"/></g><g fill="none" stroke="#000000" stroke-width="4"><path d="M4203.082 59.511l97.795.542 32.752-24.24" stroke-dasharray="33.25030232598801,105.29262403229536" stroke-dashoffset="78.186386"/><path d="M4268.125 34.842h65.832c27.97-.855 24.172-29.222-.259-29.222-6.73 0-22.233-.026-37.036-.015-11.351.009-22.291.04-28.544.122-15.117.198-20.281 13.695.061 28.947 10.684 8.01 59.59 44.469 65.778 49.619" stroke-dasharray="65.27834229457223,245.57090672720034" stroke-dashoffset="101.523773"/><path d="M4268.125 84.293h65.832c27.97.855 24.172 29.222-.259 29.222-6.73 0-22.233.027-37.036.014-11.351-.008-22.291-.039-28.544-.121-15.117-.199-20.281-13.696.061-28.947 10.684-8.01 59.59-44.468 65.778-49.619" stroke-dasharray="65.27828127859482,245.57067719090435" stroke-dashoffset="103.431031"/><path d="M4398.672 60.594l-97.795-.541-32.752 24.24" stroke-dasharray="33.25030099710609,105.29261982416928" stroke-dashoffset="78.186383"/></g><g fill="none" stroke="#000000" stroke-width="4"><path d="M4403.082 59.511l97.795.542 32.752-24.24" stroke-dasharray="33.25030232598801,105.29262403229536" stroke-dashoffset="66.739335"/><path d="M4468.125 34.842h65.832c27.97-.855 24.172-29.222-.259-29.222-6.73 0-22.233-.026-37.036-.015-11.351.009-22.291.04-28.544.122-15.117.198-20.281 13.695.061 28.947 10.684 8.01 59.59 44.469 65.778 49.619" stroke-dasharray="65.27834229457223,245.57090672720034" stroke-dashoffset="92.480186"/><path d="M4468.125 84.293h65.832c27.97.855 24.172 29.222-.259 29.222-6.73 0-22.233.027-37.036.014-11.351-.008-22.291-.039-28.544-.121-15.117-.199-20.281-13.696.061-28.947 10.684-8.01 59.59-44.468 65.778-49.619" stroke-dasharray="65.27828127859482,245.57067719090435" stroke-dashoffset="94.749195"/><path d="M4598.672 60.594l-97.795-.541-32.752 24.24" stroke-dasharray="33.25030099710609,105.29261982416928" stroke-dashoffset="66.739332"/></g><g fill="none" stroke="#000000" stroke-width="4"><path d="M4603.082 59.511l97.795.542 32.752-24.24" stroke-dasharray="33.25030232598801,105.29262403229536" stroke-dashoffset="58.430938"/><path d="M4668.125 34.842h65.832c27.97-.855 24.172-29.222-.259-29.222-6.73 0-22.233-.026-37.036-.015-11.351.009-22.291.04-28.544.122-15.117.198-20.281 13.695.061 28.947 10.684 8.01 59.59 44.469 65.778 49.619" stroke-dasharray="65.27834229457223,245.57090672720034" stroke-dashoffset="85.916249"/><path d="M4668.125 84.293h65.832c27.97.855 24.172 29.222-.259 29.222-6.73 0-22.233.027-37.036.014-11.351-.008-22.291-.039-28.544-.121-15.117-.199-20.281-13.696.061-28.947 10.684-8.01 59.59-44.468 65.778-49.619" stroke-dasharray="65.27828127859482,245.57067719090435" stroke-dashoffset="88.447822"/><path d="M4798.672 60.594l-97.795-.541-32.752 24.24" stroke-dasharray="33.25030099710609,105.29261982416928" stroke-dashoffset="58.430936"/></g><g fill="none" stroke="#000000" stroke-width="4"><path d="M4803.082 59.511l97.795.542 32.752-24.24" stroke-dasharray="33.25030232598801,105.29262403229536" stroke-dashoffset="52.377924"/><path d="M4868.125 34.842h65.832c27.97-.855 24.172-29.222-.259-29.222-6.73 0-22.233-.026-37.036-.015-11.351.009-22.291.04-28.544.122-15.117.198-20.281 13.695.061 28.947 10.684 8.01 59.59 44.469 65.778 49.619" stroke-dasharray="65.27834229457223,245.57090672720034" stroke-dashoffset="81.134148"/><path d="M4868.125 84.293h65.832c27.97.855 24.172 29.222-.259 29.222-6.73 0-22.233.027-37.036.014-11.351-.008-22.291-.039-28.544-.121-15.117-.199-20.281-13.696.061-28.947 10.684-8.01 59.59-44.468 65.778-49.619" stroke-dasharray="65.27828127859482,245.57067719090435" stroke-dashoffset="83.857009"/><path d="M4998.672 60.594l-97.795-.541-32.752 24.24" stroke-dasharray="33.25030099710609,105.29261982416928" stroke-dashoffset="52.377922"/></g><g fill="none" stroke="#000000" stroke-width="4"><path d="M5003.082 59.511l97.795.542 32.752-24.24" stroke-dasharray="33.25030232598801,105.29262403229536" stroke-dashoffset="47.970377"/><path d="M5068.125 34.842h65.832c27.97-.855 24.172-29.222-.259-29.222-6.73 0-22.233-.026-37.036-.015-11.351.009-22.291.04-28.544.122-15.117.198-20.281 13.695.061 28.947 10.684 8.01 59.59 44.469 65.778 49.619" stroke-dasharray="65.27834229457223,245.57090672720034" stroke-dashoffset="77.652024"/><path d="M5068.125 84.293h65.832c27.97.855 24.172 29.222-.259 29.222-6.73 0-22.233.027-37.036.014-11.351-.008-22.291-.039-28.544-.121-15.117-.199-20.281-13.696.061-28.947 10.684-8.01 59.59-44.468 65.778-49.619" stroke-dasharray="65.27828127859482,245.57067719090435" stroke-dashoffset="80.514174"/><path d="M5198.672 60.594l-97.795-.541-32.752 24.24" stroke-dasharray="33.25030099710609,105.29261982416928" stroke-dashoffset="47.970375"/></g><g fill="none" stroke="#000000" stroke-width="4"><path d="M5203.082 59.511l97.795.542 32.752-24.24" stroke-dasharray="33.25030232598801,105.29262403229536" stroke-dashoffset="44.805381"/><path d="M5268.125 34.842h65.832c27.97-.855 24.172-29.222-.259-29.222-6.73 0-22.233-.026-37.036-.015-11.351.009-22.291.04-28.544.122-15.117.198-20.281 13.695.061 28.947 10.684 8.01 59.59 44.469 65.778 49.619" stroke-dasharray="65.27834229457223,245.57090672720034" stroke-dashoffset="75.151562"/><path d="M5268.125 84.293h65.832c27.97.855 24.172 29.222-.259 29.222-6.73 0-22.233.027-37.036.014-11.351-.008-22.291-.039-28.544-.121-15.117-.199-20.281-13.696.061-28.947 10.684-8.01 59.59-44.468 65.778-49.619" stroke-dasharray="65.27828127859482,245.57067719090435" stroke-dashoffset="78.113732"/><path d="M5398.672 60.594l-97.795-.541-32.752 24.24" stroke-dasharray="33.25030099710609,105.29261982416928" stroke-dashoffset="44.805379"/></g><g fill="none" stroke="#000000" stroke-width="4"><path d="M5403.082 59.511l97.795.542 32.752-24.24" stroke-dasharray="33.25030232598801,105.29262403229536" stroke-dashoffset="42.610271"/><path d="M5468.125 34.842h65.832c27.97-.855 24.172-29.222-.259-29.222-6.73 0-22.233-.026-37.036-.015-11.351.009-22.291.04-28.544.122-15.117.198-20.281 13.695.061 28.947 10.684 8.01 59.59 44.469 65.778 49.619" stroke-dasharray="65.27834229457223,245.57090672720034" stroke-dashoffset="73.417346"/><path d="M5468.125 84.293h65.832c27.97.855 24.172 29.222-.259 29.222-6.73 0-22.233.027-37.036.014-11.351-.008-22.291-.039-28.544-.121-15.117-.199-20.281-13.696.061-28.947 10.684-8.01 59.59-44.468 65.778-49.619" stroke-dasharray="65.27828127859482,245.57067719090435" stroke-dashoffset="76.448886"/><path d="M5598.672 60.594l-97.795-.541-32.752 24.24" stroke-dasharray="33.25030099710609,105.29261982416928" stroke-dashoffset="42.610269"/></g><g fill="none" stroke="#000000" stroke-width="4"><path d="M5603.082 59.511l97.795.542 32.752-24.24" stroke-dasharray="33.25030232598801,105.29262403229536" stroke-dashoffset="41.193871"/><path d="M5668.125 34.842h65.832c27.97-.855 24.172-29.222-.259-29.222-6.73 0-22.233-.026-37.036-.015-11.351.009-22.291.04-28.544.122-15.117.198-20.281 13.695.061 28.947 10.684 8.01 59.59 44.469 65.778 49.619" stroke-dasharray="65.27834229457223,245.57090672720034" stroke-dashoffset="72.298338"/><path d="M5668.125 84.293h65.832c27.97.855 24.172 29.222-.259 29.222-6.73 0-22.233.027-37.036.014-11.351-.008-22.291-.039-28.544-.121-15.117-.199-20.281-13.696.061-28.947 10.684-8.01 59.59-44.468 65.778-49.619" stroke-dasharray="65.27828127859482,245.57067719090435" stroke-dashoffset="75.374639"/><path d="M5798.672 60.594l-97.795-.541-32.752 24.24" stroke-dasharray="33.25030099710609,105.29261982416928" stroke-dashoffset="41.193869"/></g><g fill="none" stroke="#000000" stroke-width="4"><path d="M5803.082 59.511l97.795.542 32.752-24.24" stroke-dasharray="33.25030232598801,105.29262403229536" stroke-dashoffset="40.41749"/><path d="M5868.125 34.842h65.832c27.97-.855 24.172-29.222-.259-29.222-6.73 0-22.233-.026-37.036-.015-11.351.009-22.291.04-28.544.122-15.117.198-20.281 13.695.061 28.947 10.684 8.01 59.59 44.469 65.778 49.619" stroke-dasharray="65.27834229457223,245.57090672720034" stroke-dashoffset="71.684969"/><path d="M5868.125 84.293h65.832c27.97.855 24.172 29.222-.259 29.222-6.73 0-22.233.027-37.036.014-11.351-.008-22.291-.039-28.544-.121-15.117-.199-20.281-13.696.061-28.947 10.684-8.01 59.59-44.468 65.778-49.619" stroke-dasharray="65.27828127859482,245.57067719090435" stroke-dashoffset="74.785806"/><path d="M5998.672 60.594l-97.795-.541-32.752 24.24" stroke-dasharray="33.25030099710609,105.29261982416928" stroke-dashoffset="40.417488"/></g><g fill="none" stroke="#000000" stroke-width="4"><path d="M6003.082 59.511l97.795.542 32.752-24.24" stroke-dasharray="33.25030232598801,105.29262403229536" stroke-dashoffset="40.177449"/><path d="M6068.125 34.842h65.832c27.97-.855 24.172-29.222-.259-29.222-6.73 0-22.233-.026-37.036-.015-11.351.009-22.291.04-28.544.122-15.117.198-20.281 13.695.061 28.947 10.684 8.01 59.59 44.469 65.778 49.619" stroke-dasharray="65.27834229457223,245.57090672720034" stroke-dashoffset="71.495327"/><path d="M6068.125 84.293h65.832c27.97.855 24.172 29.222-.259 29.222-6.73 0-22.233.027-37.036.014-11.351-.008-22.291-.039-28.544-.121-15.117-.199-20.281-13.696.061-28.947 10.684-8.01 59.59-44.468 65.778-49.619" stroke-dasharray="65.27828127859482,245.57067719090435" stroke-dashoffset="74.60375"/><path d="M6198.672 60.594l-97.795-.541-32.752 24.24" stroke-dasharray="33.25030099710609,105.29261982416928" stroke-dashoffset="40.177447"/></g></svg>